<svg xmlns="http://www.w3.org/2000/svg" version="1.1" xmlns:xlink="http://www.w3.org/1999/xlink" xmlns:svgjs="http://svgjs.dev/svgjs" width="1500" height="1500" viewBox="0 0 1500 1500"><g transform="matrix(1,0,0,1,0,0)"><svg viewBox="0 0 280 280" data-background-color="#ffffff" preserveAspectRatio="xMidYMid meet" height="1500" width="1500" xmlns="http://www.w3.org/2000/svg" xmlns:xlink="http://www.w3.org/1999/xlink"><g id="tight-bounds" transform="matrix(1,0,0,1,0,0)"><svg viewBox="0 0 280 280" height="280" width="280"><g><svg viewBox="0 0 280 280" height="280" width="280"><g><svg viewBox="0 0 280 280" height="280" width="280"><g id="textblocktransform"><svg viewBox="0 0 280 280" height="280" width="280" id="textblock"><g><svg viewBox="0 0 280 280" height="280" width="280"><g transform="matrix(1,0,0,1,90.50252531694167,99.00562701782394)"><svg viewBox="0 0 98.99494936611667 81.98874596435212" height="81.98874596435212" width="98.99494936611667"><g id="icon-0"><svg xmlns="http://www.w3.org/2000/svg" xmlns:xlink="http://www.w3.org/1999/xlink" version="1.1" x="0" y="0" viewBox="4.248000000000001 12.109000000000002 91.50200017785697 75.78299999999999" enable-background="new 0 0 100 100" xml:space="preserve" height="81.98874596435212" width="98.99494936611667" class="icon-xg-0" data-fill-palette-color="accent" id="xg-0"><g fill="#111111" data-fill-palette-color="accent"><g fill="#111111" data-fill-palette-color="accent"><path d="M73.084 70.135c-1.792 0-3.248-1.456-3.248-3.246 0-20.25-16.475-36.725-36.725-36.725-1.79 0-3.246-1.457-3.246-3.248 0-1.79 1.456-3.247 3.246-3.247 23.832 0 43.218 19.388 43.218 43.219C76.329 68.679 74.874 70.135 73.084 70.135zM33.111 25.004c-1.055 0-1.912 0.857-1.912 1.912s0.857 1.913 1.912 1.913c20.986 0 38.06 17.073 38.06 38.06 0 1.054 0.857 1.912 1.913 1.912 1.054 0 1.911-0.858 1.911-1.912C74.995 43.793 56.206 25.004 33.111 25.004z" fill="#111111" data-fill-palette-color="accent"></path></g></g><g fill="#111111" data-fill-palette-color="accent"><g fill="#111111" data-fill-palette-color="accent"><path d="M63.09 70.135c-1.791 0-3.247-1.456-3.247-3.246 0-14.74-11.991-26.732-26.731-26.732-1.79 0-3.246-1.457-3.246-3.247 0-1.791 1.456-3.248 3.246-3.248 18.321 0 33.227 14.905 33.227 33.227C66.338 68.679 64.882 70.135 63.09 70.135zM33.111 34.997c-1.055 0-1.912 0.858-1.912 1.913s0.857 1.912 1.912 1.912c15.477 0 28.065 12.59 28.065 28.067 0 1.054 0.858 1.912 1.913 1.912s1.914-0.858 1.914-1.912C65.004 49.304 50.697 34.997 33.111 34.997z" fill="#111111" data-fill-palette-color="accent"></path></g></g><g fill="#111111" data-fill-palette-color="accent"><g fill="#111111" data-fill-palette-color="accent"><path d="M53.098 70.135c-1.791 0-3.248-1.456-3.248-3.246 0-9.23-7.508-16.739-16.738-16.739-1.79 0-3.246-1.457-3.246-3.248 0-1.79 1.456-3.247 3.246-3.247 12.811 0 23.233 10.422 23.233 23.233C56.345 68.679 54.889 70.135 53.098 70.135zM33.111 44.99c-1.055 0-1.912 0.857-1.912 1.912s0.857 1.913 1.912 1.913c9.966 0 18.073 8.107 18.073 18.074 0 1.054 0.858 1.912 1.913 1.912s1.912-0.858 1.912-1.912C55.01 54.813 45.186 44.99 33.111 44.99z" fill="#111111" data-fill-palette-color="accent"></path></g></g><g fill="#111111" data-fill-palette-color="accent"><path d="M33.111 76.331c-5.207 0-9.442-4.236-9.442-9.442 0-5.208 4.235-9.444 9.442-9.444s9.443 4.236 9.443 9.444C42.555 72.095 38.318 76.331 33.111 76.331zM33.111 58.779c-4.471 0-8.107 3.638-8.107 8.109 0 4.47 3.637 8.107 8.107 8.107 4.473 0 8.109-3.638 8.109-8.107C41.221 62.417 37.584 58.779 33.111 58.779z" fill="#111111" data-fill-palette-color="accent"></path></g><g fill="#111111" data-fill-palette-color="accent"><path d="M86.352 87.892H13.646c-5.182 0-9.398-4.216-9.398-9.398V21.507c0-5.183 4.217-9.398 9.398-9.398h72.705c5.184 0 9.399 4.216 9.399 9.398v56.986C95.751 83.676 91.535 87.892 86.352 87.892zM13.646 13.444c-4.446 0-8.064 3.617-8.064 8.063v56.986c0 4.446 3.618 8.063 8.064 8.063h72.705c4.447 0 8.064-3.617 8.064-8.063V21.507c0-4.446-3.617-8.063-8.064-8.063H13.646z" fill="#111111" data-fill-palette-color="accent"></path></g><g fill="#111111" data-fill-palette-color="accent"><path d="M86.352 83.442H13.646c-2.729 0-4.949-2.22-4.949-4.949V21.507c0-2.729 2.221-4.949 4.949-4.949h72.705c2.73 0 4.95 2.22 4.95 4.949v56.986C91.302 81.223 89.082 83.442 86.352 83.442zM13.646 17.893c-1.992 0-3.615 1.622-3.615 3.614v56.986c0 1.993 1.623 3.614 3.615 3.614h72.705c1.994 0 3.615-1.621 3.615-3.614V21.507c0-1.993-1.621-3.614-3.615-3.614H13.646z" fill="#111111" data-fill-palette-color="accent"></path></g></svg></g></svg></g><g id="text-0"><path d="M12.366 78.133l1.663 0.64-0.675 2.226c-0.095 0.283-0.077 0.525 0.052 0.724 0.136 0.202 0.297 0.338 0.483 0.409v0l23.346 8.981-1.165 3.029-27.262 6.075 19.045 7.327c0.186 0.071 0.394 0.077 0.623 0.016 0.226-0.07 0.404-0.236 0.533-0.499v0l1.012-2.16 1.663 0.64-3.227 8.389-1.663-0.64 0.696-2.281c0.08-0.282 0.062-0.531-0.054-0.746-0.125-0.212-0.28-0.353-0.466-0.425v0l-20.68-7.955c-0.186-0.071-0.399-0.072-0.639-0.001-0.237 0.08-0.414 0.253-0.531 0.521v0l-1.041 2.234-1.663-0.64 2.956-7.683 0.966 0.372 24.468-5.412-17.8-6.847c-0.186-0.071-0.398-0.075-0.636-0.01-0.234 0.073-0.409 0.241-0.524 0.502v0l-1.009 2.15-1.663-0.639z" fill="#111111" data-fill-palette-color="primary"></path><path d="M51.864 58.181l5.447 4.297-13.35 16.918-1.399-1.104 1.205-1.801c0.16-0.246 0.216-0.489 0.17-0.728-0.057-0.239-0.163-0.42-0.32-0.544v0l-17.394-13.725c-0.156-0.123-0.36-0.187-0.61-0.191-0.25 0.006-0.47 0.119-0.662 0.34v0l-1.471 1.591-1.398-1.103 12.505-15.847 4.86 3.835-1.548 1.961-3.068-1.622c-0.165-0.113-0.357-0.163-0.578-0.152-0.22 0.021-0.387 0.105-0.502 0.251v0l-5.581 7.071 8.119 6.407 3.86-4.892c0.115-0.146 0.159-0.331 0.133-0.554-0.036-0.223-0.111-0.379-0.225-0.469v0l-1.985-2.112 1.307-1.657 7.282 5.747-1.307 1.656-2.531-1.452c-0.115-0.09-0.292-0.129-0.531-0.114-0.238 0.023-0.411 0.103-0.518 0.238v0l-3.859 4.891 8.978 7.085 6.511-8.251c0.107-0.135 0.134-0.325 0.082-0.57-0.062-0.243-0.141-0.411-0.237-0.503v0l-2.766-3.147z" fill="#111111" data-fill-palette-color="primary"></path><path d="M84.386 39.968l1.016 1.464-8.765 6.084-1.016-1.463 1.828-1.573c0.291-0.267 0.341-0.539 0.148-0.817v0c-0.053-0.076-0.128-0.138-0.224-0.184v0l-9.486-3.994-0.242 10.892c0.001 0.129 0.031 0.237 0.091 0.324v0c0.155 0.224 0.413 0.234 0.774 0.033v0l2.164-1.247 1.016 1.463-7.245 5.029-1.016-1.464 1.755-1.836 0.329-14.187-12.968-5.417-2.527 1.16-1.016-1.463 8.561-5.943 1.016 1.463-1.614 1.375c-0.325 0.242-0.399 0.491-0.221 0.747v0c0.068 0.098 0.16 0.172 0.275 0.222v0l8.626 3.524 0.208-9.511c0.005-0.133-0.023-0.243-0.084-0.33v0c-0.193-0.278-0.452-0.32-0.778-0.126v0l-1.915 0.978-1.016-1.464 7.155-4.967 1.016 1.464-1.967 1.862-0.286 13.116 14.009 5.833z" fill="#111111" data-fill-palette-color="primary"></path><path d="M109.416 23.707v0c0.463 1.314 0.557 2.709 0.282 4.185-0.275 1.476-1.035 2.873-2.28 4.191-1.252 1.32-3.107 2.414-5.567 3.281v0c-1.402 0.494-2.667 0.806-3.797 0.936-1.137 0.126-2.034 0.168-2.689 0.124-0.662-0.041-0.993-0.062-0.993-0.062v0l-2.444-6.938 2.469-0.869 2.077 4.249c0.08 0.148 0.22 0.285 0.42 0.412 0.208 0.131 0.385 0.205 0.532 0.223v0c0.067-0.01 0.493 0.013 1.28 0.067 0.786 0.054 1.786-0.133 3-0.561v0c1.671-0.589 2.904-1.484 3.697-2.685 0.796-1.195 0.938-2.519 0.427-3.971v0c-0.28-0.795-0.743-1.409-1.388-1.843-0.648-0.44-1.402-0.765-2.264-0.975-0.864-0.216-1.763-0.371-2.697-0.465-0.927-0.096-1.808-0.19-2.643-0.282v0c-1.251-0.136-2.438-0.33-3.561-0.582-1.125-0.258-2.117-0.718-2.976-1.379-0.863-0.653-1.528-1.643-1.996-2.969v0c-0.549-1.558-0.631-3.049-0.246-4.473 0.389-1.432 1.156-2.701 2.3-3.807 1.142-1.113 2.573-1.972 4.294-2.579v0c1.402-0.494 2.687-0.792 3.854-0.893 1.165-0.108 2.211-0.174 3.139-0.198v0l0.377-0.007 2.15 6.103-2.234 0.787-1.911-3.538c-0.087-0.166-0.214-0.269-0.383-0.308-0.16-0.035-0.316-0.089-0.469-0.162v0c-0.135-0.044-0.51-0.098-1.124-0.164-0.622-0.069-1.488 0.091-2.595 0.482v0c-1.571 0.553-2.653 1.427-3.245 2.621-0.601 1.19-0.668 2.448-0.201 3.775v0c0.423 1.202 1.243 2.031 2.46 2.489 1.21 0.46 2.817 0.717 4.821 0.771v0c2.687 0.059 4.875 0.418 6.563 1.076 1.684 0.666 2.871 1.979 3.561 3.938z" fill="#111111" data-fill-palette-color="primary"></path><path d="M144.083 0l0.389 6.618-2.444 0.144-0.815-3.851c-0.127-0.465-0.373-0.686-0.737-0.665v0l-5.932 0.349 1.349 22.944c0.012 0.199 0.096 0.39 0.253 0.573 0.15 0.177 0.375 0.27 0.674 0.28v0l2.663 0.013 0.105 1.778-11.239 0.661-0.104-1.779 2.643-0.325c0.297-0.044 0.509-0.163 0.637-0.356 0.128-0.2 0.186-0.4 0.174-0.599v0l-1.348-22.944-5.972 0.351c-0.404 0.024-0.625 0.273-0.664 0.747v0l-0.338 3.919-2.415 0.142-0.389-6.618z" fill="#111111" data-fill-palette-color="primary"></path><path d="M178.277 26.848l-1.502 6.773-21.039-4.667 0.386-1.74 2.145 0.303c0.291 0.037 0.534-0.017 0.73-0.164 0.191-0.155 0.308-0.329 0.351-0.524v0l4.799-21.632c0.043-0.194 0.012-0.405-0.094-0.632-0.114-0.222-0.312-0.372-0.594-0.448v0l-2.072-0.633 0.386-1.74 19.707 4.373-1.341 6.044-2.439-0.541 0.127-3.469c0.03-0.197-0.008-0.393-0.114-0.586-0.115-0.189-0.262-0.303-0.444-0.343v0l-8.795-1.952-2.24 10.097 6.084 1.35c0.181 0.04 0.367 0 0.557-0.121 0.185-0.129 0.293-0.265 0.324-0.408v0l1.039-2.706 2.06 0.458-2.009 9.056-2.06-0.457 0.207-2.911c0.032-0.143-0.011-0.318-0.127-0.527-0.125-0.204-0.271-0.325-0.44-0.363v0l-6.083-1.35-2.477 11.166 10.261 2.277c0.168 0.037 0.351-0.021 0.549-0.175 0.192-0.161 0.309-0.305 0.351-0.431v0l1.631-3.86z" fill="#111111" data-fill-palette-color="primary"></path><path d="M209.693 48.769l-0.916 1.621c-0.157-0.073-0.504-0.159-1.044-0.258-0.53-0.101-1.066-0.305-1.609-0.613v0c-1.236-0.699-2.099-1.458-2.589-2.276-0.49-0.818-0.742-1.681-0.755-2.588-0.011-0.898 0.097-1.817 0.323-2.756 0.235-0.942 0.463-1.884 0.683-2.827 0.217-0.937 0.312-1.859 0.284-2.766-0.031-0.917-0.3-1.789-0.807-2.618-0.508-0.828-1.397-1.602-2.668-2.32v0c-0.381-0.216-0.746-0.406-1.094-0.573-0.348-0.166-0.539-0.259-0.574-0.279v0l-4.664 8.249c-0.098 0.173-0.134 0.378-0.107 0.615 0.036 0.234 0.177 0.435 0.424 0.605v0l1.823 1.225-0.877 1.551-8.994-5.085 0.877-1.551 1.963 0.916c0.267 0.121 0.516 0.139 0.746 0.056 0.228-0.092 0.39-0.225 0.489-0.399v0l10.904-19.288c0.098-0.173 0.13-0.384 0.095-0.633-0.044-0.246-0.19-0.446-0.437-0.601v0l-1.797-1.211 0.877-1.551 9.436 5.335c2.744 1.551 4.639 3.248 5.686 5.09 1.047 1.842 0.895 3.959-0.457 6.351v0c-0.712 1.259-1.578 2.13-2.598 2.613-1.023 0.489-2.115 0.706-3.274 0.654-1.162-0.047-2.322-0.242-3.478-0.583v0c0.967 0.905 1.625 1.784 1.974 2.637 0.346 0.859 0.492 1.692 0.439 2.5-0.053 0.809-0.197 1.596-0.433 2.363-0.229 0.77-0.452 1.521-0.667 2.252-0.21 0.735-0.306 1.451-0.288 2.147 0.018 0.696 0.258 1.377 0.72 2.043 0.462 0.665 1.257 1.317 2.384 1.953zM210.883 28.117v0c0.872-1.542 1.054-3.01 0.546-4.403-0.512-1.387-1.909-2.726-4.191-4.015v0l-1.663-0.941-5.6 9.904c0.058 0.033 0.3 0.177 0.727 0.434 0.421 0.253 0.773 0.46 1.056 0.62v0c2.01 1.137 3.762 1.639 5.254 1.507 1.49-0.141 2.78-1.176 3.871-3.106z" fill="#111111" data-fill-palette-color="primary"></path><path d="M235.007 74.417l-1.308 1.211-6.713-7.255 1.308-1.21 1.782 1.618c0.072 0.078 0.191 0.104 0.356 0.078 0.175-0.026 0.306-0.08 0.394-0.161v0c0.039-0.036 0.059-0.063 0.06-0.082v0l3.634-7.269-6.517-7.043-7.366 3.06c-0.029 0.008-0.062 0.03-0.102 0.066v0c-0.117 0.108-0.184 0.27-0.202 0.486-0.017 0.206 0.014 0.353 0.096 0.44v0l1.517 1.947-1.308 1.21-5.679-6.137 1.308-1.21 2.015 1.43 25.837-10.726 2.123 2.294-12.276 24.487c-0.132 0.267-0.208 0.464-0.227 0.59-0.014 0.122 0.065 0.315 0.238 0.58v0zM229.965 53.492l5.51 5.955 5.22-10.392z" fill="#111111" data-fill-palette-color="primary"></path><path d="M253.674 113.477l-1.632 0.713-4.198-9.615 1.632-0.713 1.04 1.958c0.144 0.263 0.331 0.427 0.562 0.493 0.24 0.069 0.451 0.064 0.634-0.016v0l20.991-9.165-27.432 1.55-0.829-1.897 19.561-18.609-20.635 9.01c-0.182 0.08-0.331 0.228-0.447 0.444-0.107 0.22-0.112 0.473-0.017 0.757v0l0.793 2.239-1.633 0.713-3.596-8.237 1.633-0.713 1.107 2.112c0.141 0.257 0.326 0.415 0.554 0.475 0.232 0.051 0.439 0.036 0.622-0.044v0l20.306-8.866c0.182-0.08 0.337-0.223 0.464-0.43 0.118-0.211 0.125-0.453 0.02-0.726v0l-0.797-2.248 1.633-0.713 3.728 8.539-1.022 0.446-15.689 15.061 21.602-1.22 1.131-0.494 3.824 8.757-1.633 0.713-1.059-2.003c-0.132-0.268-0.316-0.434-0.554-0.497-0.244-0.06-0.456-0.051-0.639 0.029v0l-20.306 8.866c-0.182 0.08-0.331 0.228-0.447 0.445-0.109 0.214-0.116 0.463-0.021 0.748v0z" fill="#111111" data-fill-palette-color="primary"></path><path d="M46.406 197.432l-1.708 0.663-1.005-2.152c-0.123-0.28-0.306-0.451-0.551-0.512-0.238-0.064-0.453-0.059-0.645 0.015v0l-23.879 9.26-1.202-3.1 16.487-23.368-19.48 7.554c-0.192 0.074-0.351 0.214-0.478 0.42-0.133 0.208-0.156 0.459-0.071 0.753v0l0.73 2.323-1.708 0.662-3.325-8.576 1.708-0.662 1.026 2.207c0.135 0.275 0.324 0.451 0.568 0.527 0.237 0.079 0.451 0.081 0.643 0.007v0l21.15-8.201c0.192-0.074 0.352-0.222 0.48-0.442 0.134-0.223 0.152-0.479 0.055-0.769v0l-0.762-2.405 1.707-0.662 3.052 7.87-0.984 0.381-14.832 20.943 18.208-7.06c0.192-0.074 0.353-0.219 0.484-0.433 0.137-0.217 0.158-0.464 0.065-0.741v0l-0.73-2.322 1.708-0.662z" fill="#111111" data-fill-palette-color="primary"></path><path d="M47.359 234.046l-5.571 4.414-13.697-17.289 1.435-1.138 1.491 1.626c0.21 0.223 0.443 0.335 0.698 0.336 0.25 0.005 0.455-0.056 0.616-0.184v0l17.781-14.087c0.161-0.128 0.27-0.316 0.328-0.565 0.062-0.253 0.004-0.503-0.176-0.75v0l-1.241-1.823 1.436-1.137 12.832 16.196-4.962 3.932-1.588-2.005 2.335-2.663c0.149-0.143 0.243-0.324 0.282-0.541 0.04-0.227-0.001-0.418-0.125-0.575v0l-5.724-7.224-8.309 6.583 3.956 4.993c0.124 0.156 0.3 0.245 0.529 0.267 0.229 0.022 0.403-0.015 0.523-0.109v0l2.574-1.481 1.341 1.693-7.443 5.897-1.341-1.693 2.037-2.173c0.12-0.095 0.198-0.263 0.235-0.504 0.043-0.245 0.006-0.441-0.109-0.586v0l-3.956-4.993-9.183 7.275 6.682 8.434c0.111 0.14 0.294 0.211 0.55 0.212 0.255 0.001 0.441-0.036 0.558-0.112v0l3.784-2.02z" fill="#111111" data-fill-palette-color="primary"></path><path d="M75.318 261.921l-1.042 1.506-8.986-6.221 1.042-1.506 2.155 1.189c0.363 0.187 0.643 0.138 0.839-0.145v0c0.057-0.082 0.09-0.176 0.099-0.283v0l0.412-10.527-10.521 3.673c-0.124 0.051-0.218 0.123-0.283 0.216v0c-0.155 0.224-0.074 0.474 0.244 0.75v0l1.981 1.614-1.042 1.506-7.423-5.139 1.043-1.506 2.389 1.025 13.719-4.776 0.534-14.377-2.025-2.007 1.043-1.505 8.781 6.079-1.042 1.506-1.89-1.066c-0.355-0.222-0.623-0.201-0.804 0.061v0c-0.068 0.098-0.107 0.213-0.117 0.343v0l-0.278 9.529 9.191-3.202c0.13-0.047 0.227-0.118 0.29-0.21v0c0.196-0.284 0.144-0.546-0.157-0.787v0l-1.628-1.478 1.043-1.506 7.324 5.071-1.042 1.506-2.483-1.223-12.677 4.444-0.563 15.519z" fill="#111111" data-fill-palette-color="primary"></path><path d="M108.155 268.534v0c-0.474 1.346-1.292 2.517-2.453 3.516-1.167 0.996-2.672 1.623-4.515 1.88-1.847 0.249-4.032-0.07-6.554-0.96v0c-1.433-0.505-2.641-1.072-3.622-1.699-0.984-0.621-1.726-1.161-2.227-1.619-0.5-0.458-0.75-0.687-0.75-0.687v0l2.506-7.106 2.525 0.891-1.076 4.728c-0.024 0.167 0.004 0.367 0.084 0.6 0.08 0.232 0.17 0.405 0.271 0.518v0c0.064 0.037 0.391 0.328 0.98 0.873 0.595 0.548 1.512 1.04 2.751 1.477v0c1.715 0.605 3.274 0.683 4.678 0.234 1.401-0.442 2.364-1.407 2.889-2.896v0c0.285-0.807 0.309-1.594 0.072-2.36-0.237-0.766-0.628-1.512-1.173-2.24-0.554-0.723-1.174-1.42-1.859-2.091-0.677-0.675-1.319-1.317-1.929-1.925v0c-0.91-0.912-1.729-1.831-2.458-2.756-0.735-0.928-1.234-1.927-1.497-2.998-0.267-1.079-0.161-2.298 0.318-3.656v0c0.563-1.596 1.454-2.837 2.674-3.722 1.228-0.89 2.655-1.414 4.28-1.573 1.623-0.153 3.317 0.082 5.081 0.705v0c1.433 0.505 2.651 1.093 3.653 1.763 0.996 0.668 1.871 1.289 2.625 1.864v0l0.308 0.236-2.204 6.252-2.291-0.808 0.744-4.055c0.039-0.19 0.005-0.354-0.102-0.489-0.109-0.13-0.202-0.275-0.279-0.436v0c-0.071-0.117-0.333-0.402-0.785-0.858-0.448-0.446-1.241-0.87-2.38-1.272v0c-1.608-0.567-3.033-0.566-4.275 0.002-1.242 0.568-2.102 1.532-2.581 2.89v0c-0.432 1.227-0.312 2.412 0.36 3.557 0.677 1.153 1.795 2.392 3.355 3.716v0c2.106 1.77 3.621 3.461 4.544 5.075 0.919 1.605 1.023 3.414 0.312 5.429z" fill="#111111" data-fill-palette-color="primary"></path><path d="M146.352 251.892l-0.408 6.776-2.504-0.151-0.367-4.01c-0.064-0.489-0.284-0.745-0.661-0.768v0l-6.071-0.366-1.415 23.489c-0.012 0.205 0.049 0.408 0.183 0.609 0.134 0.207 0.352 0.334 0.655 0.378v0l2.703 0.323-0.11 1.828-11.506-0.693 0.111-1.828 2.722 0.004c0.306-0.008 0.538-0.107 0.696-0.297 0.157-0.183 0.242-0.378 0.254-0.583v0l1.415-23.488-6.111-0.368c-0.417-0.025-0.674 0.202-0.769 0.681v0l-0.826 3.939-2.464-0.148 0.408-6.776z" fill="#111111" data-fill-palette-color="primary"></path><path d="M179.58 267.218l1.521 6.942-21.547 4.72-0.392-1.789 2.115-0.626c0.292-0.091 0.495-0.251 0.608-0.48 0.114-0.222 0.15-0.434 0.106-0.634v0l-4.855-22.16c-0.044-0.201-0.165-0.382-0.363-0.542-0.2-0.167-0.45-0.224-0.751-0.171v0l-2.183 0.315-0.392-1.789 20.186-4.422 1.355 6.184-2.499 0.547-1.368-3.267c-0.063-0.197-0.184-0.36-0.363-0.491-0.186-0.136-0.376-0.183-0.57-0.14v0l-9.004 1.973 2.268 10.355 6.223-1.363c0.194-0.043 0.352-0.162 0.472-0.358 0.12-0.196 0.164-0.369 0.131-0.518v0l-0.2-2.962 2.11-0.463 2.032 9.276-2.11 0.463-1.059-2.785c-0.033-0.149-0.149-0.293-0.349-0.433-0.202-0.146-0.393-0.199-0.575-0.159v0l-6.223 1.363 2.507 11.445 10.511-2.303c0.175-0.038 0.319-0.172 0.432-0.4 0.113-0.229 0.161-0.412 0.144-0.552v0l-0.154-4.286z" fill="#111111" data-fill-palette-color="primary"></path><path d="M217.84 253.848l0.935 1.667c-0.15 0.099-0.409 0.355-0.779 0.768-0.375 0.416-0.841 0.78-1.396 1.091v0c-1.268 0.711-2.39 1.063-3.368 1.056-0.978-0.007-1.864-0.244-2.659-0.711-0.795-0.467-1.544-1.051-2.249-1.752-0.705-0.7-1.408-1.398-2.109-2.092-0.707-0.691-1.467-1.266-2.279-1.723-0.812-0.458-1.716-0.685-2.711-0.683-1.001 0.006-2.153 0.374-3.455 1.105v0c-0.388 0.217-0.749 0.435-1.083 0.653-0.329 0.215-0.51 0.332-0.545 0.351v0l4.747 8.465c0.101 0.179 0.262 0.317 0.484 0.414 0.225 0.102 0.474 0.092 0.747-0.032v0l2.04-0.961 0.896 1.597-9.22 5.171-0.896-1.597 1.841-1.215c0.253-0.172 0.401-0.384 0.442-0.636 0.045-0.246 0.017-0.458-0.084-0.638v0l-11.097-19.785c-0.101-0.179-0.269-0.317-0.505-0.413-0.24-0.102-0.496-0.083-0.769 0.054v0l-1.996 0.938-0.896-1.598 9.671-5.424c2.813-1.578 5.305-2.336 7.477-2.276 2.166 0.063 3.937 1.322 5.314 3.776v0c0.724 1.291 1.029 2.512 0.913 3.664-0.115 1.152-0.501 2.221-1.157 3.206-0.663 0.988-1.453 1.899-2.371 2.733v0c1.308-0.368 2.427-0.475 3.359-0.32 0.934 0.146 1.74 0.458 2.42 0.937 0.679 0.479 1.294 1.024 1.842 1.637 0.555 0.609 1.097 1.203 1.627 1.781 0.526 0.572 1.098 1.035 1.715 1.389 0.617 0.354 1.34 0.504 2.169 0.45 0.833-0.048 1.828-0.397 2.985-1.047zM200.388 241.838v0c-0.886-1.58-2.073-2.516-3.56-2.807-1.488-0.292-3.403 0.22-5.748 1.534v0l-1.701 0.954 5.697 10.158c0.058-0.032 0.31-0.166 0.756-0.402 0.446-0.235 0.817-0.435 1.112-0.601v0c2.06-1.156 3.428-2.421 4.103-3.795 0.674-1.375 0.455-3.055-0.659-5.041z" fill="#111111" data-fill-palette-color="primary"></path><path d="M247.119 225.008l1.34 1.249-6.905 7.403-1.339-1.249 1.531-1.934c0.072-0.078 0.089-0.203 0.051-0.375-0.039-0.172-0.104-0.302-0.197-0.387v0c-0.039-0.036-0.07-0.056-0.094-0.06v0l-7.695-3.162-6.701 7.185 3.685 7.288c0.006 0.033 0.028 0.067 0.067 0.103v0c0.126 0.118 0.297 0.177 0.513 0.179 0.216 0.002 0.367-0.043 0.453-0.135v0l1.863-1.706 1.339 1.249-5.838 6.26-1.339-1.249 1.305-2.158-12.9-25.573 2.186-2.344 25.931 10.695c0.286 0.112 0.492 0.173 0.619 0.182 0.132 0.005 0.325-0.091 0.582-0.288v0zM226.135 231.747l5.668-6.078-11.005-4.56z" fill="#111111" data-fill-palette-color="primary"></path><path d="M268.92 181.22l1.676 0.739-4.334 9.827-1.676-0.739 0.77-2.141c0.096-0.284 0.085-0.539-0.033-0.765-0.112-0.223-0.262-0.377-0.45-0.459v0l-21.457-9.464 20.19 19.588-0.855 1.94-27.587-1.832 21.093 9.303c0.188 0.083 0.403 0.09 0.643 0.022 0.246-0.065 0.443-0.232 0.591-0.501v0l1.126-2.158 1.675 0.739-3.711 8.416-1.676-0.739 0.834-2.287c0.099-0.29 0.087-0.542-0.036-0.756-0.117-0.211-0.27-0.358-0.458-0.441v0l-20.756-9.155c-0.188-0.083-0.403-0.098-0.644-0.044-0.247 0.051-0.438 0.213-0.573 0.486v0l-1.126 2.158-1.676-0.739 3.848-8.725 1.048 0.462 22.225 1.383-15.898-15.433-1.157-0.51 3.949-8.952 1.676 0.739-0.786 2.177c-0.111 0.285-0.105 0.541 0.019 0.77 0.118 0.226 0.271 0.381 0.459 0.464v0l20.756 9.154c0.188 0.083 0.403 0.09 0.643 0.023 0.246-0.065 0.443-0.232 0.59-0.501v0z" fill="#111111" data-fill-palette-color="primary"></path><path d="M3.709 143.989c0-6.021 4.881-10.901 10.902-10.902 6.021 0 10.901 4.881 10.901 10.902 0 6.021-4.881 10.901-10.901 10.901-6.021 0-10.901-4.881-10.902-10.901z" fill="#111111" data-fill-palette-color="primary"></path><path d="M254.552 143.989c0-6.021 4.881-10.901 10.901-10.902 6.021 0 10.901 4.881 10.902 10.902 0 6.021-4.881 10.901-10.902 10.901-6.021 0-10.901-4.881-10.901-10.901z" fill="#111111" data-fill-palette-color="primary"></path></g><g id="text-1"></g></svg></g></svg></g></svg></g></svg></g><defs></defs></svg><rect width="280" height="280" fill="none" stroke="none" visibility="hidden"></rect></g></svg></g></svg>