<?xml version="1.0" encoding="UTF-8"?>
<svg version="1.1" xmlns="http://www.w3.org/2000/svg" width="1324" height="800">
<path d="M0 0 C6.52351574 0.193669 6.52351574 0.193669 9.37744141 0.29541016 C11.38077948 0.36482206 13.38461924 0.41923169 15.38842773 0.47338867 C32.57072573 1.05393026 32.57072573 1.05393026 38.72631836 5.9909668 C39.69698242 6.74700195 39.69698242 6.74700195 40.68725586 7.51831055 C42.35131836 9.0534668 42.35131836 9.0534668 44.35131836 12.0534668 C44.35131836 13.0434668 44.35131836 14.0334668 44.35131836 15.0534668 C45.01131836 15.0534668 45.67131836 15.0534668 46.35131836 15.0534668 C46.4620166 15.73860352 46.57271484 16.42374023 46.68676758 17.12963867 C47.19644415 20.27149508 47.71134179 23.41247493 48.22631836 26.5534668 C48.4003418 27.63112305 48.57436523 28.7087793 48.75366211 29.8190918 C49.51412667 34.43820986 50.28120911 39.01489424 51.45288086 43.54956055 C52.16207219 46.31540675 52.63660342 48.78709741 52.85131836 51.6159668 C53.23514544 55.63568316 54.12470117 59.21006627 55.35131836 63.0534668 C55.02131836 63.3834668 54.69131836 63.7134668 54.35131836 64.0534668 C54.56073735 65.50118936 54.84721803 66.93784874 55.16381836 68.3659668 C56.59829817 75.13401582 57.70414994 81.94688901 58.78100586 88.7800293 C59.52371294 93.4056611 60.32850663 98.00471584 61.29663086 102.58862305 C63.52368361 113.15850177 65.08676207 123.56846441 66.08618164 134.3190918 C66.61556531 139.7786656 67.23487365 145.22816077 67.85131836 150.6784668 C67.96999268 151.7691748 68.08866699 152.85988281 68.2109375 153.98364258 C68.38870728 155.553479 68.38870728 155.553479 68.57006836 157.1550293 C68.67254883 158.07622559 68.7750293 158.99742187 68.88061523 159.9465332 C69.4994762 164.03140078 70.4149634 168.03116855 71.35131836 172.0534668 C72.07213328 166.41692414 72.78384765 160.77932987 73.48754883 155.140625 C73.72762966 153.22690685 73.97009331 151.31348593 74.21508789 149.40039062 C76.16975867 134.77972774 76.16975867 134.77972774 76.35131836 120.0534668 C77.01131836 120.0534668 77.67131836 120.0534668 78.35131836 120.0534668 C78.07288086 118.9397168 78.07288086 118.9397168 77.78881836 117.8034668 C77.34728635 115.02812276 77.50512688 113.67666039 78.35131836 111.0534668 C78.69125799 109.72180245 79.02369824 108.38821544 79.35131836 107.0534668 C79.6162207 106.00739258 79.6162207 106.00739258 79.88647461 104.94018555 C81.02867686 100.17677911 81.55963979 95.94902037 81.35131836 91.0534668 C82.01131836 91.0534668 82.67131836 91.0534668 83.35131836 91.0534668 C83.14506836 89.9809668 82.93881836 88.9084668 82.72631836 87.8034668 C82.33215911 83.86187429 82.61980243 83.31279089 84.35131836 80.0534668 C84.35131836 79.0015918 84.35131836 77.9497168 84.35131836 76.8659668 C84.35131836 71.33724622 85.6088686 66.28081608 87.35131836 61.0534668 C87.89989022 58.47262095 88.41970047 55.89463045 88.91381836 53.3034668 C89.05239258 52.6125293 89.1909668 51.9215918 89.33374023 51.2097168 C90.18589214 46.74326542 90.48818657 42.59987176 90.35131836 38.0534668 C91.01131836 38.0534668 91.67131836 38.0534668 92.35131836 38.0534668 C92.54609575 36.42932302 92.73191294 34.80410257 92.91381836 33.1784668 C93.01823242 32.27354492 93.12264648 31.36862305 93.23022461 30.4362793 C93.54806688 28.03693622 93.54806688 28.03693622 92.35131836 26.0534668 C93.01131836 26.0534668 93.67131836 26.0534668 94.35131836 26.0534668 C94.15151367 25.48370117 93.95170898 24.91393555 93.74584961 24.3269043 C92.86821227 19.26962776 96.77180471 14.12970644 99.10131836 9.8034668 C103.57086533 4.34068717 108.42928828 1.98768449 115.35131836 1.0534668 C117.66011287 0.97506827 119.97090328 0.94558885 122.28100586 0.95581055 C123.57006836 0.9590332 124.85913086 0.96225586 126.18725586 0.96557617 C127.53361071 0.97392947 128.87996488 0.98239439 130.22631836 0.9909668 C131.5961084 0.9959885 132.96590021 1.00055023 134.33569336 1.00463867 C137.67428025 1.01639426 141.01277651 1.03282715 144.35131836 1.0534668 C146.58783141 6.45380602 146.62786119 11.26007919 146.59182739 17.00021362 C146.59353624 17.9976434 146.59524509 18.99507317 146.59700572 20.02272809 C146.60029791 23.36231191 146.58930123 26.70169447 146.57836914 30.04125977 C146.57780497 32.43620295 146.5781217 34.83114649 146.57925415 37.22608948 C146.57976881 43.05266384 146.57109907 48.87917236 146.55837883 54.70573168 C146.54407018 61.48688487 146.54108749 68.26802877 146.53880249 75.04919495 C146.53442787 87.14177863 146.52112508 99.23433528 146.50219727 111.3269043 C146.48383244 123.07202011 146.46967889 134.81712858 146.46118164 146.56225586 C146.46065619 147.28651944 146.46013075 148.01078303 146.45958938 148.75699399 C146.45697926 152.39049946 146.45445185 156.02400497 146.45196557 159.65751052 C146.43124032 189.78951487 146.3958722 219.92148767 146.35131836 250.0534668 C141.52770236 250.2207138 136.70392925 250.38130988 131.87988281 250.53564453 C130.23756902 250.58913639 128.5953142 250.64447111 126.953125 250.70166016 C124.59770429 250.78337158 122.24215354 250.85853319 119.88647461 250.93237305 C118.77865379 250.97292564 118.77865379 250.97292564 117.64845276 251.01429749 C115.8834622 251.0664106 114.11703826 251.065328 112.35131836 251.0534668 C110.3353189 249.03746734 111.1940872 244.91048001 111.19018555 242.14526367 C111.18273819 240.8978389 111.18273819 240.8978389 111.17514038 239.62521362 C111.16041552 236.84087298 111.15368294 234.05659021 111.14819336 231.2722168 C111.14395229 229.82786003 111.14395229 229.82786003 111.13962555 228.35432434 C111.1245554 223.21074141 111.11538868 218.06718683 111.11108398 212.92358398 C111.10677914 208.7483609 111.0932202 204.57335385 111.07006836 200.39819336 C110.92220405 173.18611163 111.77775773 146.30480971 114.16558838 119.1964798 C114.44593098 115.96179552 114.70177537 112.72529241 114.95678711 109.48852539 C115.36694935 104.28839314 115.79286094 99.08987722 116.23168945 93.89208984 C116.48674242 90.8673449 116.73751424 87.84226192 116.98803711 84.81713867 C117.1531616 82.8425092 117.31851586 80.86789893 117.48413086 78.89331055 C117.55705353 78.01327866 117.6299762 77.13324677 117.70510864 76.22654724 C118.13630345 71.14931023 118.68597299 66.10550051 119.35131836 61.0534668 C117.33173534 65.49168563 116.4828408 69.92236161 115.62475586 74.6862793 C115.47221344 75.5187619 115.31967102 76.35124451 115.1625061 77.20895386 C114.8421357 78.96847097 114.52459909 80.72850613 114.2097168 82.48901367 C113.73132128 85.15063235 113.23715097 87.80899442 112.74194336 90.4675293 C111.17971107 99.03416189 109.74323893 107.3026282 110.35131836 116.0534668 C109.69131836 116.0534668 109.03131836 116.0534668 108.35131836 116.0534668 C108.2778418 117.23102539 108.2778418 117.23102539 108.20288086 118.43237305 C107.51704308 128.06957637 107.51704308 128.06957637 106.28881836 131.9284668 C105.31744712 135.16637093 105.27834298 137.69659951 105.35131836 141.0534668 C105.06009436 142.72800478 104.74061037 144.39897575 104.35131836 146.0534668 C103.69131836 146.0534668 103.03131836 146.0534668 102.35131836 146.0534668 C102.35131836 149.3534668 102.35131836 152.6534668 102.35131836 156.0534668 C101.69131836 156.0534668 101.03131836 156.0534668 100.35131836 156.0534668 C100.35131836 160.0134668 100.35131836 163.9734668 100.35131836 168.0534668 C99.69131836 168.0534668 99.03131836 168.0534668 98.35131836 168.0534668 C98.35131836 172.0134668 98.35131836 175.9734668 98.35131836 180.0534668 C97.69131836 180.0534668 97.03131836 180.0534668 96.35131836 180.0534668 C96.53694336 180.5897168 96.72256836 181.1259668 96.91381836 181.6784668 C97.4655116 184.67337294 96.9572928 187.09092509 96.35131836 190.0534668 C95.69131836 190.0534668 95.03131836 190.0534668 94.35131836 190.0534668 C94.68131836 192.0334668 95.01131836 194.0134668 95.35131836 196.0534668 C94.69131836 196.0534668 94.03131836 196.0534668 93.35131836 196.0534668 C93.55756836 196.8990918 93.76381836 197.7447168 93.97631836 198.6159668 C94.41712137 202.65666109 93.53301644 205.18012309 92.35131836 209.0534668 C92.02074246 211.33165253 91.7897809 213.60592886 91.57006836 215.8972168 C91.29183988 218.63975462 90.83816297 221.34104684 90.35131836 224.0534668 C89.69131836 224.0534668 89.03131836 224.0534668 88.35131836 224.0534668 C88.37452148 224.88491211 88.39772461 225.71635742 88.42163086 226.57299805 C88.43967773 227.65967773 88.45772461 228.74635742 88.47631836 229.8659668 C88.49952148 230.94491211 88.52272461 232.02385742 88.54663086 233.13549805 C88.35131836 236.0534668 88.35131836 236.0534668 86.35131836 239.0534668 C87.01131836 239.3834668 87.67131836 239.7134668 88.35131836 240.0534668 C87.69131836 240.0534668 87.03131836 240.0534668 86.35131836 240.0534668 C86.39256836 241.1465918 86.43381836 242.2397168 86.47631836 243.3659668 C86.35131836 247.0534668 86.35131836 247.0534668 84.35131836 250.0534668 C81.66162109 250.40991211 81.66162109 250.40991211 78.28491211 250.3815918 C77.07770508 250.37643555 75.87049805 250.3712793 74.62670898 250.3659668 C73.36020508 250.3453418 72.09370117 250.3247168 70.78881836 250.3034668 C68.88326172 250.29573242 68.88326172 250.29573242 66.93920898 250.2878418 C57.50501614 250.20716457 57.50501614 250.20716457 56.35131836 249.0534668 C56.27951872 247.53418642 56.26739829 246.01179198 56.28881836 244.4909668 C56.2978418 243.66467773 56.30686523 242.83838867 56.31616211 241.98706055 C56.32776367 241.34897461 56.33936523 240.71088867 56.35131836 240.0534668 C55.69131836 239.7234668 55.03131836 239.3934668 54.35131836 239.0534668 C54.00756836 236.97924805 54.00756836 236.97924805 53.85131836 234.3659668 C53.52675004 230.27408759 52.67591482 226.94446891 51.35131836 223.0534668 C51.02748294 220.70665951 50.79413524 218.36726935 50.59741211 216.0065918 C50.45145768 213.97716912 50.45145768 213.97716912 49.35131836 212.0534668 C49.1468568 210.47456918 48.98592038 208.88984775 48.85131836 207.3034668 C48.44392926 202.88584126 47.98265066 198.52618499 46.88256836 194.2175293 C45.47933296 188.50140862 44.49109306 182.6528355 43.85131836 176.8034668 C43.44435804 173.05838353 43.44435804 173.05838353 42.35131836 169.5534668 C41.46962575 166.46754266 40.98205388 163.55659389 40.63256836 160.3737793 C39.92830108 154.56357421 39.20465385 148.61347327 37.35131836 143.0534668 C37.11131876 141.44211665 36.87485696 139.83015075 36.65737915 138.21560669 C36.01043436 133.64532136 35.19885111 129.09983062 34.42553711 124.54956055 C34.23667435 123.43525162 34.04781158 122.32094269 33.85322571 121.17286682 C33.45274482 118.81178036 33.05178906 116.4507744 32.65039062 114.08984375 C32.04973439 110.5552036 31.45139966 107.02017612 30.85327148 103.48510742 C28.45128776 89.32253432 25.95858954 75.17969614 23.35131836 61.0534668 C23.79132175 73.34577201 24.6075045 85.55985399 25.78881836 97.8034668 C25.92264654 99.20636872 26.05635368 100.60928219 26.18994141 102.01220703 C26.91366934 109.59421093 26.91366934 109.59421093 27.66918945 117.1730957 C31.94802416 159.38754136 30.49474936 202.30601058 30.35804749 244.69317627 C30.35295349 246.47993393 30.35131836 248.26670188 30.35131836 250.0534668 C19.13131836 250.3834668 7.91131836 250.7134668 -3.64868164 251.0534668 C-4.79788964 248.7550508 -4.7686729 247.49174412 -4.75890541 244.93705654 C-4.75802976 244.06980904 -4.75715411 243.20256154 -4.75625193 242.30903381 C-4.75013026 241.35058644 -4.74400859 240.39213906 -4.73770142 239.40464783 C-4.73517785 238.39092356 -4.73265429 237.37719929 -4.73005426 236.3327561 C-4.7202821 232.91402324 -4.70325469 229.4953643 -4.6862793 226.07666016 C-4.67777776 223.63467041 -4.66970572 221.19267914 -4.66203308 218.75068665 C-4.64209684 212.79355803 -4.61741076 206.83646629 -4.59043004 200.87936681 C-4.56861079 196.04008837 -4.54875507 191.20080561 -4.5303154 186.36151314 C-4.52769327 185.67378325 -4.52507114 184.98605337 -4.52236956 184.27748318 C-4.51705215 182.880556 -4.51173937 181.4836288 -4.50643115 180.08670158 C-4.45638323 166.97685156 -4.40015636 153.86703356 -4.34182541 140.75721813 C-4.29186627 129.49685264 -4.24716055 118.23647627 -4.20629883 106.97607422 C-4.15889226 93.91282798 -4.10827276 80.8496008 -4.05247343 67.7863875 C-4.04653798 66.39479325 -4.04060663 65.00319898 -4.03467941 63.61160469 C-4.03176103 62.92683603 -4.02884264 62.24206737 -4.02583582 61.53654815 C-4.00544554 56.69992311 -3.98736943 51.86329254 -3.97017288 47.0266552 C-3.94698124 40.52359394 -3.91853445 34.02057032 -3.88648415 27.5175457 C-3.87548765 25.12332381 -3.86620844 22.72909337 -3.85872078 20.33485794 C-3.84827381 17.08163168 -3.83176803 13.8284932 -3.81362915 10.57530212 C-3.81196892 9.61462403 -3.8103087 8.65394593 -3.80859816 7.66415638 C-3.75514035 0.07580199 -3.75514035 0.07580199 0 0 Z M79.35131836 109.0534668 C80.35131836 111.0534668 80.35131836 111.0534668 80.35131836 111.0534668 Z " fill="#0A0A0A" transform="translate(908.648681640625,236.946533203125)"/>
<path d="M0 0 C1.93238525 0.07855225 1.93238525 0.07855225 3.90380859 0.15869141 C4.58905609 0.18371735 5.27430359 0.20874329 5.98031616 0.23452759 C8.17145919 0.316777 10.3617072 0.41334439 12.55224609 0.51025391 C14.0365844 0.56848863 15.52095955 0.62579202 17.00537109 0.68212891 C20.64648583 0.82236148 24.28693229 0.97544141 27.92724609 1.13525391 C29.88972528 4.82049332 30.62118176 8.20164312 31.36474609 12.32275391 C32.32114628 17.44165454 33.52198481 22.30203536 35.30224609 27.19775391 C36.25044743 30.13717806 36.54492223 33.07666301 36.92724609 36.13525391 C37.25724609 36.46525391 37.58724609 36.79525391 37.92724609 37.13525391 C38.2482236 39.45342479 38.43945565 41.77304748 38.64599609 44.10400391 C38.71790447 46.12705984 38.71790447 46.12705984 39.92724609 47.13525391 C40.11287109 48.62025391 40.11287109 48.62025391 40.30224609 50.13525391 C40.68116529 53.08240321 41.38558236 55.70561408 42.36474609 58.51025391 C44.58132046 64.90298287 45.78907019 71.3620229 46.98242188 78.015625 C47.17167236 79.06484131 47.17167236 79.06484131 47.36474609 80.13525391 C47.55399658 81.18447021 47.55399658 81.18447021 47.74707031 82.25488281 C48.58082264 86.71593089 49.73153259 90.85426271 51.30224609 95.10009766 C52.23984116 98.15314158 52.48479656 101.21023174 52.71630859 104.38525391 C52.74772018 106.16153007 52.74772018 106.16153007 53.92724609 107.13525391 C54.27903806 109.4658757 54.61054788 111.79960458 54.92724609 114.13525391 C55.24888377 115.47145677 55.58313035 116.80466259 55.92724609 118.13525391 C56.29384567 119.76312652 56.65542555 121.39213412 57.01318359 123.02197266 C57.22201172 123.96105469 57.43083984 124.90013672 57.64599609 125.86767578 C58.07899598 127.81746397 58.50875432 129.76797522 58.93505859 131.71923828 C60.11585878 137.00043912 61.49873686 142.0969673 63.27587891 147.20825195 C64.48310512 150.77970492 65.16689332 154.45046738 65.92724609 158.13525391 C65.28094192 152.13287578 64.6154894 146.13297279 63.92724609 140.13525391 C63.79914551 139.01642822 63.79914551 139.01642822 63.66845703 137.875 C63.43049416 135.8355182 63.18113878 133.79780683 62.92724609 131.76025391 C62.78287109 130.57689453 62.63849609 129.39353516 62.48974609 128.17431641 C62.09076805 125.21242848 62.09076805 125.21242848 60.86865234 123.06103516 C59.61725289 120.50111844 59.76657198 118.52909533 59.86474609 115.69775391 C60.02146783 110.79849622 59.47816496 106.7880105 57.92724609 102.13525391 C57.94787109 101.02150391 57.96849609 99.90775391 57.98974609 98.76025391 C58.17011536 95.28644646 58.17011536 95.28644646 56.93753052 92.95478821 C55.55938375 89.10861182 55.66459187 85.42934671 55.70019531 81.39770508 C55.69990326 80.52890717 55.69961121 79.66010925 55.6993103 78.76498413 C55.70070002 75.90262757 55.7162444 73.04053357 55.73193359 70.17822266 C55.735665 68.18996828 55.73851137 66.20171207 55.74050903 64.2134552 C55.74813546 58.98722228 55.7677755 53.761101 55.78991699 48.53491211 C55.81039672 43.19923411 55.8195153 37.86353803 55.82958984 32.52783203 C55.85102228 22.06359035 55.88514633 11.59943142 55.92724609 1.13525391 C58.82950161 -0.31587385 61.37635843 0.00540231 64.61474609 0.00244141 C65.60220825 0.00100632 65.60220825 0.00100632 66.60961914 -0.00045776 C68.00162858 -0.00113834 69.39364119 0.00070744 70.78564453 0.00488281 C72.91885492 0.01023286 75.05185477 0.00493378 77.18505859 -0.00146484 C78.53662156 -0.00080404 79.88818439 0.00047717 81.23974609 0.00244141 C83.09019531 0.0041333 83.09019531 0.0041333 84.97802734 0.00585938 C87.92724609 0.13525391 87.92724609 0.13525391 89.92724609 1.13525391 C89.95850478 22.05191396 89.97843545 42.96857412 89.98974609 63.88525391 C89.9901804 64.66519604 89.9906147 65.44513818 89.99106216 66.24871492 C90.01572301 111.7761529 89.89187635 157.29736092 89.42724609 202.82275391 C89.41528828 203.99521164 89.40333046 205.16766937 89.39101028 206.37565613 C89.24802007 220.29565832 89.09422519 234.21551907 88.92724609 248.13525391 C89.58724609 248.46525391 90.24724609 248.79525391 90.92724609 249.13525391 C88.9859676 251.0765324 85.37211294 250.4590333 82.71630859 250.55712891 C81.99236908 250.58502502 81.26842957 250.61292114 80.52255249 250.6416626 C78.98762885 250.69814967 77.45259695 250.7517562 75.91748047 250.80273438 C73.56835604 250.88469185 71.22079401 250.98823693 68.87255859 251.09228516 C67.38302164 251.14440903 65.89343851 251.19523292 64.40380859 251.24462891 C63.70059479 251.27884949 62.99738098 251.31307007 62.27285767 251.34832764 C59.39336243 251.4228951 57.43271512 251.47325518 54.99511719 249.84326172 C53.31180029 247.15087831 53.30975847 244.24999758 52.92724609 241.13525391 C52.29250535 239.78642982 51.62875762 238.45058801 50.92724609 237.13525391 C50.36474609 234.82275391 50.36474609 234.82275391 49.92724609 232.13525391 C49.72099609 230.91837891 49.51474609 229.70150391 49.30224609 228.44775391 C48.92724609 225.13525391 48.92724609 225.13525391 49.92724609 223.13525391 C49.26724609 223.13525391 48.60724609 223.13525391 47.92724609 223.13525391 C46.92724609 217.38525391 46.92724609 217.38525391 46.92724609 215.13525391 C46.52397296 212.5811907 46.08719372 210.45514916 44.92724609 208.13525391 C43.02992029 204.34060229 42.85238815 200.36813759 42.48974609 196.19775391 C42.12009243 192.24304641 41.31789294 188.8726173 39.92724609 185.13525391 C38.76057943 180.46858724 38.76057943 180.46858724 39.92724609 178.13525391 C39.26724609 177.80525391 38.60724609 177.47525391 37.92724609 177.13525391 C37.57983687 175.13765086 37.24758566 173.1373762 36.92724609 171.13525391 C36.26724609 170.14525391 35.60724609 169.15525391 34.92724609 168.13525391 C33.64985988 164.16116345 32.02265829 158.94442951 33.92724609 155.13525391 C33.26724609 155.13525391 32.60724609 155.13525391 31.92724609 155.13525391 C31.87826172 154.43658203 31.82927734 153.73791016 31.77880859 153.01806641 C31.70404297 152.10798828 31.62927734 151.19791016 31.55224609 150.26025391 C31.48263672 149.35533203 31.41302734 148.45041016 31.34130859 147.51806641 C31.13156477 144.95583488 31.13156477 144.95583488 28.92724609 143.13525391 C28.90101248 140.80206805 28.90525707 138.46848363 28.92724609 136.13525391 C28.5214115 133.81215479 28.04262331 131.50091796 27.50146484 129.20556641 C27.35320755 128.57093475 27.20495026 127.9363031 27.05220032 127.28244019 C26.73893298 125.94881373 26.42192073 124.61606184 26.10131836 123.28417969 C25.61813257 121.27434014 25.14772356 119.26183712 24.67919922 117.24853516 C23.07214163 110.41956913 21.28787034 103.74500179 18.92724609 97.13525391 C20.73428846 112.01957653 22.66926561 126.88630182 24.64398193 141.74917603 C24.91589963 143.79628251 25.18726301 145.84346269 25.45806885 147.89071655 C25.84447978 150.80970475 26.23317639 153.7283795 26.62255859 156.64697266 C26.73913818 157.52945679 26.85571777 158.41194092 26.97583008 159.32116699 C27.08628662 160.14499878 27.19674316 160.96883057 27.31054688 161.81762695 C27.45352707 162.89151924 27.45352707 162.89151924 27.59939575 163.98710632 C27.9044996 166.16938661 27.9044996 166.16938661 28.45770264 168.42311096 C29.06054003 171.90517671 29.06668316 175.3256847 29.05664062 178.84716797 C29.05839294 179.60707031 29.06014526 180.36697266 29.06195068 181.14990234 C29.06633615 183.65025139 29.06344405 186.1505292 29.06005859 188.65087891 C29.0607323 190.39011651 29.06170289 192.12935403 29.06295776 193.86859131 C29.06443002 197.50664164 29.0622943 201.14466737 29.05761719 204.78271484 C29.05190318 209.45595365 29.05521242 214.12913524 29.06118965 218.80237198 C29.06479355 222.38987667 29.06365777 225.97736765 29.06106186 229.56487274 C29.06039299 231.28893795 29.06121962 233.0130044 29.06354141 234.73706818 C29.06606696 237.1383853 29.06222955 239.53960793 29.05664062 241.94091797 C29.05866486 242.65882507 29.06068909 243.37673218 29.06277466 244.11639404 C29.04151241 249.02098759 29.04151241 249.02098759 27.92724609 250.13525391 C25.48115612 250.29505828 23.05993552 250.39454837 20.61083984 250.45166016 C19.87978531 250.47244125 19.14873077 250.49322235 18.39552307 250.51463318 C16.05202953 250.58020415 13.70842071 250.63904822 11.36474609 250.69775391 C9.77944754 250.74093199 8.1941608 250.78454604 6.60888672 250.82861328 C2.71512572 250.9358931 -1.17875163 251.0371388 -5.07275391 251.13525391 C-5.11834172 219.4481743 -5.15375392 187.76110398 -5.17488457 156.07399926 C-5.17738609 152.3362794 -5.17997473 148.59855961 -5.18261719 144.86083984 C-5.18314181 144.11670139 -5.18366643 143.37256293 -5.18420695 142.60587482 C-5.1929186 130.54391076 -5.20869273 118.48196569 -5.2270595 106.42001291 C-5.24573745 94.0508887 -5.25686616 81.68177446 -5.2609309 69.31263673 C-5.26368034 61.67517512 -5.27237601 54.03776717 -5.28858684 46.40032206 C-5.30037067 40.55201909 -5.30167059 34.70374392 -5.29896927 28.8554287 C-5.29952192 26.45032991 -5.30353207 24.04522918 -5.31116486 21.64014244 C-5.32103974 18.36960715 -5.31875021 15.099306 -5.31326294 11.82876587 C-5.31908862 10.86574543 -5.32491431 9.90272498 -5.33091652 8.9105221 C-5.32693443 8.03917451 -5.32295233 7.16782691 -5.31884956 6.27007484 C-5.319609 5.51443139 -5.32036844 4.75878793 -5.3211509 3.98024619 C-4.84672222 0.45638204 -3.32170101 0.14621185 0 0 Z M56.92724609 87.13525391 C57.92724609 90.13525391 57.92724609 90.13525391 57.92724609 90.13525391 Z M60.92724609 117.13525391 C61.92724609 120.13525391 61.92724609 120.13525391 61.92724609 120.13525391 Z M33.92724609 157.13525391 C34.92724609 159.13525391 34.92724609 159.13525391 34.92724609 159.13525391 Z M42.92724609 195.13525391 C43.92724609 197.13525391 43.92724609 197.13525391 43.92724609 197.13525391 Z M44.92724609 203.13525391 C45.92724609 205.13525391 45.92724609 205.13525391 45.92724609 205.13525391 Z M46.92724609 212.13525391 C47.92724609 214.13525391 47.92724609 214.13525391 47.92724609 214.13525391 Z M50.92724609 229.13525391 C51.92724609 231.13525391 51.92724609 231.13525391 51.92724609 231.13525391 Z M52.92724609 237.13525391 C53.92724609 239.13525391 53.92724609 239.13525391 53.92724609 239.13525391 Z M54.92724609 246.13525391 C55.92724609 248.13525391 55.92724609 248.13525391 55.92724609 248.13525391 Z " fill="#0B0B0B" transform="translate(235.07275390625,236.86474609375)"/>
<path d="M0 0 C1.16243729 -0.01606293 2.32487457 -0.03212585 3.52253723 -0.04867554 C8.88840316 -0.09315362 14.25411938 -0.13470232 19.62011719 -0.15722656 C22.44174282 -0.17047477 25.26262947 -0.19814577 28.08398438 -0.23925781 C32.15856848 -0.29862784 36.2323779 -0.31596355 40.30737305 -0.33056641 C41.55472733 -0.35323578 42.8020816 -0.37590515 44.0872345 -0.39926147 C52.6064446 -0.37897926 58.98124149 1.35807628 66.5690918 5.19287109 C67.3396138 5.57633698 68.1101358 5.95980286 68.90400696 6.35488892 C69.72822395 6.76969009 69.72822395 6.76969009 70.5690918 7.19287109 C70.5690918 7.85287109 70.5690918 8.51287109 70.5690918 9.19287109 C71.1259668 9.41974609 71.6828418 9.64662109 72.2565918 9.88037109 C79.13744161 13.78571828 83.55535378 21.06949033 86.5690918 28.19287109 C88.54461253 35.52102762 88.87638276 42.67421072 88.86987305 50.22802734 C88.87415817 51.34672714 88.8784433 52.46542694 88.88285828 53.61802673 C88.88856833 55.96857022 88.88912656 58.31913136 88.88476562 60.66967773 C88.88159772 64.24868001 88.90513514 67.82686083 88.93041992 71.40576172 C88.93269259 73.70068256 88.93339656 75.9956056 88.93237305 78.29052734 C88.94158279 79.35014175 88.95079254 80.40975616 88.96028137 81.5014801 C88.92498194 87.21465144 88.35844436 91.95293005 86.27970886 97.29466248 C85.31427206 99.87354855 84.91814302 102.47027152 84.5690918 105.19287109 C83.9090918 105.19287109 83.2490918 105.19287109 82.5690918 105.19287109 C82.3215918 106.05912109 82.0740918 106.92537109 81.8190918 107.81787109 C78.69932538 116.24124041 72.18746677 122.87197288 64.4675293 127.43505859 C61.71203918 128.66623503 59.59955618 129.19287109 56.5690918 129.19287109 C56.5690918 130.18287109 56.5690918 131.17287109 56.5690918 132.19287109 C57.1981543 132.41201172 57.8272168 132.63115234 58.4753418 132.85693359 C67.41818442 136.17009517 74.23923219 141.07177904 80.5690918 148.19287109 C80.5690918 149.18287109 80.5690918 150.17287109 80.5690918 151.19287109 C81.2290918 151.19287109 81.8890918 151.19287109 82.5690918 151.19287109 C89.28147079 163.05140732 88.84786283 175.30691263 88.7644043 188.54833984 C88.7606668 190.3038161 88.75782331 192.05929446 88.75582886 193.81477356 C88.74825036 198.39976929 88.72865263 202.98463511 88.7064209 207.56958008 C88.68583678 212.26235193 88.67680046 216.95514509 88.66674805 221.64794922 C88.6454004 230.82964642 88.61133566 240.01124789 88.5690918 249.19287109 C87.6404834 249.21792725 86.711875 249.2429834 85.75512695 249.26879883 C82.31473376 249.36385041 78.87451467 249.46308816 75.43432617 249.56518555 C73.94446539 249.60853699 72.45455485 249.65021193 70.96459961 249.69018555 C68.82479853 249.74788325 66.68524795 249.81157865 64.5456543 249.87646484 C63.25739746 249.91312256 61.96914063 249.94978027 60.6418457 249.98754883 C57.65632359 249.98817784 57.65632359 249.98817784 55.5690918 251.19287109 C53.99323688 248.04116126 54.41597612 244.65934854 54.41137695 241.19824219 C54.40629623 240.37199341 54.40121552 239.54574463 54.39598083 238.69445801 C54.38526451 236.89601076 54.3766493 235.09755007 54.3698616 233.29908371 C54.35808126 230.44863664 54.33862828 227.59834167 54.31674194 224.74795532 C54.25511357 216.64191792 54.20116925 208.53589396 54.16772461 200.4296875 C54.14672472 195.4735363 54.11137283 190.51765888 54.06696701 185.56166458 C54.05284237 183.67595275 54.04409259 181.79019244 54.04091263 179.90443039 C54.03597845 177.25728697 54.01275443 174.61086323 53.9855957 171.96386719 C53.98860184 171.19160797 53.99160797 170.41934875 53.9947052 169.62368774 C53.91269889 164.21432388 52.83785096 160.12599685 50.5690918 155.19287109 C45.86854083 151.29241391 42.05951097 150.02875002 36.0690918 150.19287109 C33.00764106 150.27674646 30.52268277 149.98008212 27.5690918 149.19287109 C27.57131241 150.43093002 27.57353302 151.66898895 27.57582092 152.94456482 C27.59605033 164.58472331 27.61106296 176.22487826 27.62090397 187.86505032 C27.62613331 193.85006375 27.63323187 199.83506306 27.64453125 205.82006836 C27.65535833 211.59070539 27.66136825 217.36132878 27.66396904 223.13197517 C27.66582362 225.33890053 27.66944484 227.54582509 27.67482185 229.75274467 C27.6820299 232.83233151 27.68308284 235.91186123 27.68261719 238.99145508 C27.68621246 239.91358292 27.68980774 240.83571075 27.69351196 241.78578186 C27.68314396 248.07881893 27.68314396 248.07881893 26.5690918 249.19287109 C24.12300182 249.35267546 21.70178122 249.45216556 19.25268555 249.50927734 C18.52163101 249.53005844 17.79057648 249.55083954 17.03736877 249.57225037 C14.69387524 249.63782133 12.35026641 249.69666541 10.0065918 249.75537109 C8.42129325 249.79854917 6.83600651 249.84216322 5.25073242 249.88623047 C1.35697142 249.99351029 -2.53690592 250.09475599 -6.4309082 250.19287109 C-6.45369796 218.48876575 -6.47140606 186.78466273 -6.48197353 155.08055112 C-6.48322431 151.34154253 -6.48451862 147.60253396 -6.48583984 143.86352539 C-6.48610215 143.11912462 -6.48636446 142.37472386 -6.48663472 141.60776549 C-6.49099155 129.53866691 -6.49887917 117.46957306 -6.508061 105.4004773 C-6.51739719 93.02570697 -6.52296374 80.65093913 -6.5249967 68.27616543 C-6.526372 60.63411204 -6.53072297 52.99207205 -6.53882467 45.35002279 C-6.54471239 39.49999329 -6.54536726 33.64997075 -6.54401588 27.7999382 C-6.54429241 25.39280934 -6.5463001 22.98568001 -6.55011368 20.57855415 C-6.55504412 17.30772646 -6.5539089 14.03695742 -6.55116272 10.76612854 C-6.55407556 9.80019526 -6.5569884 8.83426197 -6.55998951 7.83905798 C-6.55799846 6.96970143 -6.55600742 6.10034489 -6.55395603 5.2046442 C-6.55433575 4.44862103 -6.55471547 3.69259785 -6.5551067 2.91366488 C-6.27767056 -0.93026566 -3.17582632 0.03975016 0 0 Z M27.5690918 33.19287109 C27.5690918 34.20098343 27.5690918 35.20909576 27.5690918 36.24775696 C27.5690918 63.22946167 27.5690918 90.21116638 27.5690918 117.19287109 C38.59276085 117.87151758 38.59276085 117.87151758 48.39331055 113.71240234 C54.87044057 106.60794738 54.88705716 99.13857821 54.9050293 89.92724609 C54.9116861 88.73867004 54.9183429 87.55009399 54.92520142 86.32550049 C54.93531091 83.81402123 54.94001896 81.30251521 54.93969727 78.79101562 C54.94406072 74.97008388 54.98037425 71.15031669 55.01831055 67.32958984 C55.02418113 64.88297919 55.02814891 62.43636307 55.0300293 59.98974609 C55.04440033 58.85712341 55.05877136 57.72450073 55.07357788 56.55755615 C55.03227894 49.30205563 54.5049434 41.12848238 49.06967163 35.69354248 C44.54607868 32.88501797 39.95597766 33.01867393 34.77612305 33.10693359 C33.73470154 33.11623901 33.73470154 33.11623901 32.67224121 33.12573242 C30.97112035 33.14182905 29.2700842 33.16648672 27.5690918 33.19287109 Z " fill="#0A0A0A" transform="translate(692.430908203125,237.80712890625)"/>
<path d="M0 0 C0 0.66 0 1.32 0 2 C0.66 2.33 1.32 2.66 2 3 C2.56048223 5.1891086 3.02360106 7.4035085 3.4375 9.625 C4.54315872 15.36311645 4.54315872 15.36311645 6.5625 20.8125 C8.06466724 24.14339257 8.79587854 27.21825437 9.47265625 30.7890625 C9.95684278 33.08224464 9.95684278 33.08224464 11.02734375 35.45703125 C12.04355114 38.11386261 12.32930342 40.23320419 12.5 43.0625 C12.62307475 53.19160069 12.62307475 53.19160069 16 62 C16.23363881 63.84891946 16.41303635 65.70488031 16.5625 67.5625 C16.64628906 68.57441406 16.73007812 69.58632813 16.81640625 70.62890625 C16.90728516 71.80259766 16.90728516 71.80259766 17 73 C17.81951164 68.70964207 18.62931573 64.41750488 19.4375 60.125 C19.66759766 58.92101562 19.89769531 57.71703125 20.13476562 56.4765625 C21.28469107 50.34362677 22.29191225 44.31389524 22.67602539 38.08154297 C23.04058805 35.73922103 23.92009379 34.09516352 25 32 C25.16750414 29.33290931 25.16750414 29.33290931 25 27 C25.66 26.67 26.32 26.34 27 26 C27.144375 24.96875 27.28875 23.9375 27.4375 22.875 C28 19 28 19 29.5 15.5625 C30.75414693 12.58390105 31.22539283 10.90183071 31.5 7.8125 C32.01380554 3.89473277 32.1911708 2.64240652 35 0 C38.24633789 -0.59350586 38.24633789 -0.59350586 42.22265625 -0.71484375 C42.9239415 -0.73849503 43.62522675 -0.7621463 44.34776306 -0.78651428 C45.82769361 -0.83172446 47.30794694 -0.8672629 48.78833008 -0.89379883 C51.05902212 -0.93743317 53.32623596 -1.0182047 55.59570312 -1.10351562 C57.03379521 -1.14284342 58.4719479 -1.18002629 59.91015625 -1.21484375 C61.87674194 -1.26306274 61.87674194 -1.26306274 63.88305664 -1.31225586 C64.91164795 -1.20921143 65.94023926 -1.10616699 67 -1 C69 2 69 2 68.64453125 3.9453125 C68.23267578 5.02425781 68.23267578 5.02425781 67.8125 6.125 C67.52117187 6.92292969 67.22984375 7.72085938 66.9296875 8.54296875 C66.46949219 9.75919922 66.46949219 9.75919922 66 11 C64.31801596 15.67852843 62.89648513 20.22767214 62 25.125 C61.41669515 28.30131547 60.73766186 30.60862449 59.4375 33.625 C57.76215584 37.55841672 57.37184773 40.76093584 57 45 C56.34 45 55.68 45 55 45 C54.44894459 48.22761027 53.94839536 51.43495339 53.5625 54.6875 C53 58 53 58 51 61 C48.80955592 66.90057424 47.57888916 72.74799706 47 79 C46.34 79 45.68 79 45 79 C44.896875 79.969375 44.79375 80.93875 44.6875 81.9375 C44.26562668 84.95786842 43.50047897 87.68307273 42.5 90.5625 C40.18475288 97.37070192 39.82250588 101.46751763 42.11328125 108.33984375 C42.9466799 110.84003969 43.6796 113.35592944 44.39526367 115.8918457 C45.7127143 120.48457327 47.11326259 125.05282812 48.5 129.625 C48.96212891 131.16027344 48.96212891 131.16027344 49.43359375 132.7265625 C49.73394531 133.7165625 50.03429687 134.7065625 50.34375 135.7265625 C50.61380859 136.61939941 50.88386719 137.51223633 51.16210938 138.43212891 C51.72906406 140.16966661 52.36044539 141.88726309 53.04833984 143.58056641 C53.90038025 145.74673378 54.44165394 147.70775142 54.8828125 149.984375 C56.19601932 156.17411008 58.05475703 162.19380128 59.875 168.25 C60.21402344 169.38824219 60.55304688 170.52648437 60.90234375 171.69921875 C62.97832688 178.65428978 62.97832688 178.65428978 65.14941406 185.58007812 C65.51518555 186.72412109 65.88095703 187.86816406 66.2578125 189.046875 C66.75885498 190.58359863 66.75885498 190.58359863 67.27001953 192.15136719 C67.9754193 194.90407771 68.14458149 197.17450162 68 200 C64.46173745 201.17942085 61.65851274 201.11289189 57.92578125 201.09765625 C56.90003242 201.09553383 56.90003242 201.09553383 55.8535614 201.09336853 C53.67316278 201.08777876 51.49286749 201.07522822 49.3125 201.0625 C47.83268378 201.05748367 46.35286594 201.052921 44.87304688 201.04882812 C41.24866443 201.03781271 37.6243423 201.02055512 34 201 C31.72931019 196.75945279 31.5960093 193.12467562 31.34375 188.36328125 C31.2303125 187.58339844 31.116875 186.80351562 31 186 C30.34 185.67 29.68 185.34 29 185 C28.5859375 182.71484375 28.5859375 182.71484375 28.375 179.9375 C28.30023438 179.01839844 28.22546875 178.09929687 28.1484375 177.15234375 C28.09945312 176.44207031 28.05046875 175.73179687 28 175 C27.34 175 26.68 175 26 175 C25 168.25 25 168.25 25 166 C24.67 166 24.34 166 24 166 C24.02320313 165.37351562 24.04640625 164.74703125 24.0703125 164.1015625 C24.08835937 163.28429687 24.10640625 162.46703125 24.125 161.625 C24.14820313 160.81289063 24.17140625 160.00078125 24.1953125 159.1640625 C24.21370051 156.78657757 24.21370051 156.78657757 22 155 C21.69140625 152.63671875 21.69140625 152.63671875 21.5625 149.6875 C21.1194612 142.91885167 19.6815527 136.55699795 18 130 C14.16245244 133.83754756 14.04056502 140.0729074 13.5625 145.3125 C13.10918333 150.03523551 11.90300877 154.47208813 10.6953125 159.05078125 C9.75907996 163.02187996 9.39895734 166.94393373 9 171 C8.67 171.33 8.34 171.66 8 172 C7.95936168 173.66617115 7.957279 175.33388095 8 177 C7.34 177 6.68 177 6 177 C6.04125 177.72316406 6.0825 178.44632813 6.125 179.19140625 C5.98850603 182.25825522 5.26444954 184.15834527 4 186.9375 C2.31342643 190.88067374 1.89232519 193.69300741 2 198 C-1.55603368 200.37068912 -4.17993345 200.34465108 -8.29296875 200.4140625 C-9.35201164 200.44311172 -9.35201164 200.44311172 -10.43244934 200.4727478 C-12.68401061 200.53245224 -14.93562328 200.5788914 -17.1875 200.625 C-18.71551689 200.66318829 -20.24351245 200.70224052 -21.77148438 200.7421875 C-25.51414935 200.83814596 -29.2569151 200.92221011 -33 201 C-34.37333152 196.88000544 -32.91432163 194.00501896 -31.5625 190.0625 C-30.16005054 185.92955212 -29 182.4313378 -29 178 C-28.34 178 -27.68 178 -27 178 C-26.896875 177.030625 -26.79375 176.06125 -26.6875 175.0625 C-26.15568887 171.24733317 -24.96432925 167.81708778 -23.6875 164.1953125 C-22.87012011 161.7977978 -22.87012011 161.7977978 -22.5 158.375 C-22.08057143 155.54385717 -21.59202151 153.84170758 -20.4375 151.3125 C-18.73460459 147.99026403 -18.73460459 147.99026403 -19 144 C-18.34 144 -17.68 144 -17 144 C-16.7834375 142.2365625 -16.7834375 142.2365625 -16.5625 140.4375 C-16.41941406 139.33535156 -16.41941406 139.33535156 -16.2734375 138.2109375 C-16.04110142 136.33233434 -15.85887654 134.4476419 -15.6875 132.5625 C-15.11351637 129.58822119 -14.54201685 127.8807331 -13.25 125.25 C-10.97193422 120.40805946 -9.57703217 115.40081841 -8.1875 110.25 C-7.95643555 109.42145508 -7.72537109 108.59291016 -7.48730469 107.73925781 C-5.99312216 102.03734645 -6.13032358 98.60902925 -8 93 C-8.33333333 91.66666667 -8.66666667 90.33333333 -9 89 C-9.33 88.01 -9.66 87.02 -10 86 C-10.144375 85.401875 -10.28875 84.80375 -10.4375 84.1875 C-11.01034911 81.81807688 -11.01034911 81.81807688 -12.125 78.875 C-13 76 -13 76 -12 74 C-12.66 74 -13.32 74 -14 74 C-14.12375 73.0925 -14.2475 72.185 -14.375 71.25 C-14.81930123 68.15025974 -14.81930123 68.15025974 -15.9375 66.125 C-17.56982433 62.86035134 -18.2394289 59.5688336 -19 56 C-18.505 55.505 -18.505 55.505 -18 55 C-18.66 54.67 -19.32 54.34 -20 54 C-20.84077894 51.47766319 -21.52026487 49.02252973 -22.125 46.4375 C-22.31320312 45.65246094 -22.50140625 44.86742187 -22.6953125 44.05859375 C-23 42 -23 42 -22 40 C-22.66 40 -23.32 40 -24 40 C-24.12375 39.0925 -24.2475 38.185 -24.375 37.25 C-24.81058101 34.13437745 -24.81058101 34.13437745 -26.0078125 32.08984375 C-27.43454107 29.08472648 -27.44136046 26.2082189 -27.65625 22.92578125 C-27.7696875 22.29027344 -27.883125 21.65476562 -28 21 C-28.66 20.67 -29.32 20.34 -30 20 C-29.95875 19.236875 -29.9175 18.47375 -29.875 17.6875 C-29.77919176 14.77281584 -29.77919176 14.77281584 -32 12 C-32.4140625 9.08203125 -32.4140625 9.08203125 -32.625 5.8125 C-32.69976562 4.72582031 -32.77453125 3.63914063 -32.8515625 2.51953125 C-32.90054687 1.68808594 -32.94953125 0.85664063 -33 0 C-28.78271077 -0.16777849 -24.56522682 -0.32832034 -20.34741211 -0.48217773 C-18.91276652 -0.53552897 -17.47819286 -0.5908529 -16.04370117 -0.64819336 C-13.98111481 -0.730297 -11.91837332 -0.80528996 -9.85546875 -0.87890625 C-8.61434326 -0.9260376 -7.37321777 -0.97316895 -6.09448242 -1.02172852 C-3 -1 -3 -1 0 0 Z M-27 25 C-26 27 -26 27 -26 27 Z M-21 45 C-20 47 -20 47 -20 47 Z M-11 79 C-10 81 -10 81 -10 81 Z M27 172 C28 174 28 174 28 174 Z " fill="#0F0F0F" transform="translate(461,238)"/>
<path d="M0 0 C1.04185204 0.00303635 1.04185204 0.00303635 2.10475159 0.00613403 C2.83320282 0.00438171 3.56165405 0.00262939 4.31217957 0.00082397 C6.73207447 -0.003595 9.15189689 -0.0006561 11.5717926 0.00271606 C13.2470908 0.00204296 14.9223889 0.00107289 16.59768677 -0.00018311 C20.11421129 -0.0016602 23.63071047 0.00049457 27.14723206 0.00515747 C31.66130565 0.01085038 36.17531974 0.00757861 40.68939114 0.00158501 C44.1508428 -0.00202404 47.61228029 -0.00088036 51.07373238 0.0017128 C52.73835825 0.00238134 54.4029854 0.00155617 56.06760979 -0.00076675 C58.39252516 -0.00329841 60.71734347 0.00055479 63.04225159 0.00613403 C63.73479538 0.0041098 64.42733917 0.00208557 65.14086914 0 C69.90967149 0.02126488 69.90967149 0.02126488 72.13819885 1.13552856 C72.16757323 4.46884295 72.18512219 7.8021234 72.20069885 11.13552856 C72.20907776 12.07009888 72.21745667 13.00466919 72.22608948 13.96755981 C72.24528777 19.45827258 71.95161816 24.70419338 71.13819885 30.13552856 C71.79819885 30.46552856 72.45819885 30.79552856 73.13819885 31.13552856 C72.80819885 32.12552856 72.47819885 33.11552856 72.13819885 34.13552856 C57.94819885 34.46552856 43.75819885 34.79552856 29.13819885 35.13552856 C28.80819885 59.55552856 28.47819885 83.97552856 28.13819885 109.13552856 C40.01819885 109.13552856 51.89819885 109.13552856 64.13819885 109.13552856 C65.10047079 115.87143213 65.32181659 122.17348015 65.32569885 128.94802856 C65.33794495 130.09207153 65.35019104 131.2361145 65.36280823 132.41482544 C65.36474182 133.50472778 65.36667542 134.59463013 65.3686676 135.71755981 C65.37277649 136.70989624 65.37688538 137.70223267 65.38111877 138.72463989 C65.13819885 141.13552856 65.13819885 141.13552856 63.13819885 143.13552856 C60.55716579 143.31055852 58.08511723 143.36715135 55.50538635 143.33084106 C54.3776329 143.32659622 54.3776329 143.32659622 53.22709656 143.32226562 C50.82230308 143.3110573 48.41788004 143.28595208 46.01319885 143.26052856 C44.38429798 143.25049958 42.75539127 143.24137359 41.1264801 143.23318481 C37.1302433 143.21111591 33.13428391 143.17658207 29.13819885 143.13552856 C29.06878054 152.48858377 29.01542938 161.84155072 28.98276234 171.19480705 C28.96708616 175.53760736 28.94581261 179.88023182 28.91188049 184.22293091 C28.87935617 188.41152812 28.86136055 192.59995587 28.85356712 196.78866959 C28.8480111 198.38912755 28.8371619 199.98957592 28.82100868 201.58996201 C28.79932579 203.82654838 28.79622799 206.06242873 28.79762268 208.29910278 C28.79096085 209.57373383 28.78429901 210.84836487 28.7774353 212.16162109 C28.95601326 213.63370529 28.95601326 213.63370529 29.13819885 215.13552856 C33.07124357 217.75755838 36.40444954 217.38701383 40.9624176 217.33084106 C41.82381851 217.32801117 42.68521942 217.32518127 43.57272339 217.32226562 C46.32385654 217.31107094 49.0746641 217.28596778 51.82569885 217.26052856 C53.69092853 217.25049784 55.5561633 217.24137215 57.42140198 217.23318481 C61.99379305 217.21113394 66.56594075 217.17660905 71.13819885 217.13552856 C72.11767933 220.70408775 72.1746721 223.72082531 72.0171051 227.43240356 C71.96876526 228.637677 71.92042542 229.84295044 71.87062073 231.08474731 C71.7865094 232.96613403 71.7865094 232.96613403 71.70069885 234.88552856 C71.64849182 236.15525513 71.59628479 237.42498169 71.54249573 238.73318481 C71.41287901 241.86755263 71.27791415 245.0015973 71.13819885 248.13552856 C71.79819885 248.46552856 72.45819885 248.79552856 73.13819885 249.13552856 C71.44049038 250.83323704 69.27482419 250.28047365 66.95094299 250.29666138 C65.84211258 250.30626892 64.73328217 250.31587646 63.59085083 250.32577515 C61.77544044 250.33214996 61.77544044 250.33214996 59.9233551 250.33865356 C58.68331223 250.34435364 57.44326935 250.35005371 56.16564941 250.35592651 C53.53007845 250.36539928 50.89462191 250.37228304 48.25904846 250.37576294 C45.56945599 250.38013047 42.88018741 250.39394862 40.19068909 250.41677856 C36.30981248 250.44739881 32.42933943 250.4578315 28.5483551 250.46365356 C27.35629959 250.47600037 26.16424408 250.48834717 24.93606567 250.50106812 C16.7735804 250.47952711 8.76982066 250.13556397 2.26319885 244.76052856 C1.56194885 243.89427856 0.86069885 243.02802856 0.13819885 242.13552856 C-0.94461365 240.80521606 -0.94461365 240.80521606 -2.04930115 239.44802856 C-2.94648865 238.30334106 -2.94648865 238.30334106 -3.86180115 237.13552856 C-4.52180115 236.47552856 -5.18180115 235.81552856 -5.86180115 235.13552856 C-6.05775997 232.06668288 -6.12650707 229.08813824 -6.10903931 226.01820374 C-6.11145372 225.0616492 -6.11386814 224.10509466 -6.11635572 223.11955363 C-6.1220196 219.89426034 -6.11330936 216.66916276 -6.10472107 213.44387817 C-6.10579328 211.13981574 -6.10773104 208.83575356 -6.11047363 206.5316925 C-6.11533464 200.2591901 -6.10765087 193.98675848 -6.09752059 187.71426463 C-6.08876155 181.16438418 -6.09049711 174.61450609 -6.09088135 168.06462097 C-6.09029859 157.06440068 -6.08130091 146.06420656 -6.06761169 135.06399536 C-6.0535204 123.73488872 -6.04644103 112.4058062 -6.04710388 101.07669067 C-6.04714384 100.37882456 -6.04718379 99.68095844 -6.04722496 98.96194487 C-6.04726532 98.2653097 -6.04730567 97.56867453 -6.04734725 96.8509292 C-6.04800142 84.62165437 -6.04286031 72.39239038 -6.03455544 60.16311836 C-6.03101496 54.94740281 -6.0291911 49.73169074 -6.02866173 44.51597404 C-6.02766081 38.38063379 -6.02158488 32.24531909 -6.01149559 26.10998726 C-6.00856256 23.85121441 -6.00734683 21.59243862 -6.00792313 19.33366394 C-6.00841008 16.2643716 -6.00279525 13.19515201 -5.99551392 10.12586975 C-5.99706252 9.21966493 -5.99861112 8.31346011 -6.00020665 7.37979454 C-5.97114633 0.0267456 -5.97114633 0.0267456 0 0 Z " fill="#0D0D0D" transform="translate(344.86180114746094,236.86447143554688)"/>
<path d="M0 0 C0.90737411 -0.00014603 1.81474823 -0.00029205 2.74961853 -0.0004425 C5.75807053 0.00025588 8.76646112 0.00804485 11.77490234 0.01586914 C13.85712653 0.01773358 15.93935115 0.01915736 18.02157593 0.02015686 C23.50920823 0.02397998 28.99681417 0.03380853 34.48443604 0.04486084 C40.08125451 0.05507937 45.67807723 0.05965543 51.27490234 0.06469727 C62.26189311 0.07543096 73.24886429 0.09250494 84.23583984 0.11352539 C85.11857876 3.40628558 85.36470974 6.29991382 85.36865234 9.71899414 C85.36994141 10.7844043 85.37123047 11.84981445 85.37255859 12.94750977 C85.36869141 14.05416992 85.36482422 15.16083008 85.36083984 16.30102539 C85.36470703 17.41928711 85.36857422 18.53754883 85.37255859 19.68969727 C85.37126953 20.75124023 85.36998047 21.8127832 85.36865234 22.90649414 C85.36752441 23.88126709 85.36639648 24.85604004 85.36523438 25.86035156 C85.23583984 28.11352539 85.23583984 28.11352539 84.23583984 29.11352539 C82.24152255 29.20757681 80.24384441 29.23095788 78.24731445 29.22705078 C76.96606186 29.22697525 75.68480927 29.22689972 74.36473083 29.2268219 C72.95588137 29.22171448 71.54703229 29.21649848 70.13818359 29.21118164 C68.7047175 29.20931741 67.27125077 29.20789353 65.83778381 29.20689392 C62.05824028 29.20306911 58.27873495 29.19323916 54.49920654 29.18218994 C50.64514686 29.17197502 46.79108103 29.16739613 42.93701172 29.16235352 C35.36993698 29.15161685 27.80289376 29.13454088 20.23583984 29.11352539 C20.39810059 30.05679687 20.56036133 31.00006836 20.72753906 31.97192383 C21.41532118 36.22282692 22.20957125 41.16606258 20.23583984 45.11352539 C39.04583984 45.11352539 57.85583984 45.11352539 77.23583984 45.11352539 C77.23583984 53.03352539 77.23583984 60.95352539 77.23583984 69.11352539 C77.89583984 69.44352539 78.55583984 69.77352539 79.23583984 70.11352539 C75.98595475 71.09206623 73.11855001 71.20514097 69.73291016 71.13525391 C68.63207092 71.11515762 67.53123169 71.09506134 66.39703369 71.07435608 C65.21462097 71.04732101 64.03220825 71.02028595 62.81396484 70.99243164 C61.59884216 70.96882065 60.38371948 70.94520966 59.1317749 70.92088318 C55.24967633 70.84429359 51.36777958 70.76024846 47.48583984 70.67602539 C44.85433931 70.62280003 42.22282892 70.57005966 39.59130859 70.51782227 C33.13936073 70.38868471 26.68756284 70.25342513 20.23583984 70.11352539 C20.39274452 71.5510962 20.55045155 72.98857945 20.70849609 74.42602539 C20.79623291 75.2265332 20.88396973 76.02704102 20.97436523 76.85180664 C21.26039061 79.3258861 21.56058784 81.71262937 22.23583984 84.11352539 C24.90244042 85.44682568 26.98472727 85.27511998 29.97070312 85.31884766 C31.17179718 85.33879288 32.37289124 85.3587381 33.61038208 85.37928772 C34.91248627 85.39600021 36.21459045 85.41271271 37.55615234 85.42993164 C38.89851523 85.45050164 40.24087163 85.47149812 41.58322144 85.49290466 C45.11772422 85.5481207 48.65228542 85.59753197 52.18688965 85.64575195 C55.79310306 85.69597043 59.39923157 85.75165468 63.00537109 85.80688477 C70.08212033 85.91446056 77.15894569 86.01590681 84.23583984 86.11352539 C85.14783086 89.49610496 85.35142629 92.45858254 85.33349609 95.97290039 C85.32866211 97.64545898 85.32866211 97.64545898 85.32373047 99.35180664 C85.31116211 101.09010742 85.31116211 101.09010742 85.29833984 102.86352539 C85.29382813 104.03786133 85.28931641 105.21219727 85.28466797 106.42211914 C85.27289079 109.31930612 85.2564431 112.21638993 85.23583984 115.11352539 C80.94311633 115.93894576 76.93105364 116.22014012 72.56298828 116.16699219 C71.254328 116.15335129 69.94566772 116.13971039 68.59735107 116.12565613 C67.17996659 116.10507719 65.76258789 116.08409644 64.34521484 116.06274414 C62.87559268 116.04348059 61.40596777 116.02442587 59.93634033 116.00556946 C56.8598374 115.96468232 53.78343253 115.91948806 50.70703125 115.87158203 C46.78924679 115.81116651 42.87143159 115.76413619 38.95342636 115.72075176 C35.91790328 115.6851576 32.8825486 115.64095245 29.8471756 115.59440041 C28.40411563 115.57353596 26.96101021 115.55558205 25.51787567 115.54074669 C5.50411113 115.32493721 5.50411113 115.32493721 -0.63916016 111.16821289 C-1.34041016 110.44891602 -2.04166016 109.72961914 -2.76416016 108.98852539 C-4.07448354 107.67352228 -5.40255677 106.37535611 -6.76416016 105.11352539 C-7.42416016 105.11352539 -8.08416016 105.11352539 -8.76416016 105.11352539 C-9.09416016 103.79352539 -9.42416016 102.47352539 -9.76416016 101.11352539 C-10.09416016 101.11352539 -10.42416016 101.11352539 -10.76416016 101.11352539 C-10.76416016 68.11352539 -10.76416016 35.11352539 -10.76416016 1.11352539 C-7.42465163 -0.55622887 -3.6712553 -0.01530467 0 0 Z " fill="#070707" transform="translate(805.76416015625,237.886474609375)"/>
<path d="M0 0 C11.40071982 -0.43534968 21.16477497 2.74058724 31.0859375 8.1875 C31.0859375 8.8475 31.0859375 9.5075 31.0859375 10.1875 C32.7359375 10.8475 34.3859375 11.5075 36.0859375 12.1875 C36.0859375 12.8475 36.0859375 13.5075 36.0859375 14.1875 C36.7459375 14.1875 37.4059375 14.1875 38.0859375 14.1875 C38.0859375 14.8475 38.0859375 15.5075 38.0859375 16.1875 C38.7459375 16.1875 39.4059375 16.1875 40.0859375 16.1875 C42.0859375 19.1875 42.0859375 19.1875 42.0859375 22.1875 C42.7459375 22.1875 43.4059375 22.1875 44.0859375 22.1875 C50.59306589 34.41205674 50.37559955 47.70438057 50.28125 61.20703125 C50.27750944 62.80270712 50.27466741 64.39838532 50.27267456 65.99406433 C50.26512009 70.1483113 50.24554431 74.30241339 50.2232666 78.456604 C50.1989867 83.46535499 50.18998812 88.47415503 50.17835999 93.4829483 C50.15911324 101.05123227 50.12073428 108.61919977 50.0859375 116.1875 C34.7409375 116.6825 34.7409375 116.6825 19.0859375 117.1875 C18.0859375 112.1875 18.0859375 112.1875 18.0859375 97.1875 C7.1959375 96.8575 -3.6940625 96.5275 -14.9140625 96.1875 C-14.5840625 97.1775 -14.2540625 98.1675 -13.9140625 99.1875 C-13.83432774 100.52275717 -13.80634912 101.86162083 -13.81640625 103.19921875 C-13.81890381 103.88201904 -13.82140137 104.56481934 -13.82397461 105.26831055 C-13.83307861 106.12851807 -13.84218262 106.98872559 -13.8515625 107.875 C-13.8721875 110.618125 -13.8928125 113.36125 -13.9140625 116.1875 C-29.2590625 116.6825 -29.2590625 116.6825 -44.9140625 117.1875 C-45.78713096 112.82215769 -46.02322831 108.98340642 -45.95166016 104.58666992 C-45.94365891 103.83801163 -45.93565765 103.08935333 -45.92741394 102.31800842 C-45.89961168 99.85123257 -45.86409091 97.38463808 -45.828125 94.91796875 C-45.80633589 93.1955049 -45.78488722 91.47303671 -45.76376343 89.75056458 C-45.71831383 86.14184199 -45.66910837 82.53319567 -45.6171875 78.92456055 C-45.55111012 74.31487647 -45.49374897 69.70513438 -45.43915749 65.09530163 C-45.39614957 61.53749426 -45.34876554 57.9797554 -45.30006027 54.42202187 C-45.27726859 52.72329676 -45.25574758 51.0245541 -45.23555374 49.32579613 C-45.20650674 46.94261733 -45.17162327 44.55959056 -45.13525391 42.17651367 C-45.1279274 41.4837735 -45.12060089 40.79103333 -45.11305237 40.07730103 C-44.89647481 27.35184052 -44.89647481 27.35184052 -42.2265625 24.1875 C-41.4634375 23.5275 -40.7003125 22.8675 -39.9140625 22.1875 C-38.95733008 20.91001336 -38.02177248 19.61654088 -37.1015625 18.3125 C-34.20161012 14.37210668 -30.97640704 10.95156948 -26.9140625 8.1875 C-26.2540625 8.1875 -25.5940625 8.1875 -24.9140625 8.1875 C-24.9140625 7.5275 -24.9140625 6.8675 -24.9140625 6.1875 C-16.42318499 2.95571938 -9.08606734 0.58462632 0 0 Z M-1.9140625 30.1875 C-3.30625 30.373125 -3.30625 30.373125 -4.7265625 30.5625 C-7.99873316 31.20410209 -9.53534555 31.90027216 -11.9140625 34.1875 C-11.9140625 34.8475 -11.9140625 35.5075 -11.9140625 36.1875 C-12.9040625 36.6825 -12.9040625 36.6825 -13.9140625 37.1875 C-15.32318346 40.00574192 -15.02589803 42.36001282 -15.01171875 45.5078125 C-15.00922119 46.63977051 -15.00672363 47.77172852 -15.00415039 48.93798828 C-14.99504639 50.38157715 -14.98594238 51.82516602 -14.9765625 53.3125 C-14.9559375 57.89125 -14.9353125 62.47 -14.9140625 67.1875 C-4.0240625 67.1875 6.8659375 67.1875 18.0859375 67.1875 C20.04779615 63.2637827 19.31463145 58.37697467 19.3359375 54.0625 C19.3565625 53.0415625 19.3771875 52.020625 19.3984375 50.96875 C19.43098588 44.63809001 18.71585215 39.95947058 16.0859375 34.1875 C15.4259375 34.1875 14.7659375 34.1875 14.0859375 34.1875 C14.0859375 33.5275 14.0859375 32.8675 14.0859375 32.1875 C5.95443418 28.40512052 5.95443418 28.40512052 -1.9140625 30.1875 Z " fill="#090909" transform="translate(840.9140625,370.8125)"/>
<path d="M0 0 C0 0.66 0 1.32 0 2 C2.33214148 3.20628008 4.49642139 4.1654738 7 5 C7 5.66 7 6.32 7 7 C7.57363281 7.17917969 8.14726563 7.35835937 8.73828125 7.54296875 C12.09120071 9.70296695 13.46807929 12.83373769 15.1875 16.3125 C15.54263672 17.02365967 15.89777344 17.73481934 16.26367188 18.4675293 C19.29139598 24.90575192 20.17278241 30.88352435 20 38 C20 38.99 20 39.98 20 41 C16.48808517 42.10961564 13.36665772 42.03443358 9.703125 41.87890625 C8.49785156 41.83056641 7.29257812 41.78222656 6.05078125 41.73242188 C4.16939453 41.64831055 4.16939453 41.64831055 2.25 41.5625 C0.98027344 41.51029297 -0.28945313 41.45808594 -1.59765625 41.40429688 C-4.73202407 41.27468016 -7.86606874 41.13971529 -11 41 C-11.12117187 40.32453125 -11.24234375 39.6490625 -11.3671875 38.953125 C-11.53476562 38.06109375 -11.70234375 37.1690625 -11.875 36.25 C-12.03742187 35.36828125 -12.19984375 34.4865625 -12.3671875 33.578125 C-13.29676895 29.79094132 -14.17612923 27.62346978 -17.3125 25.25 C-24.12489145 22.94071476 -31.80932332 22.98698644 -38.6875 25.1875 C-42.06977263 26.7016876 -42.06977263 26.7016876 -43.5625 29.375 C-44.04022129 32.24132774 -43.63399216 34.19164955 -43 37 C-41.37486596 37.40628351 -39.749718 37.8125114 -38.12451172 38.21850586 C-36.6884099 38.57777886 -35.25254318 38.93799266 -33.81689453 39.29907227 C-30.17180463 40.21450399 -26.52507269 41.1174612 -22.8671875 41.98046875 C1.11886105 47.68795718 1.11886105 47.68795718 11 55 C11 55.66 11 56.32 11 57 C11.66 57 12.32 57 13 57 C13.81302325 58.45804169 14.62540131 59.91644315 15.4375 61.375 C15.88996094 62.18710937 16.34242188 62.99921875 16.80859375 63.8359375 C20.64213407 70.79915499 20.28038963 78.31766223 19 86 C18.34 86 17.68 86 17 86 C17.04125 86.7425 17.0825 87.485 17.125 88.25 C16.95396133 92.01285084 15.89146183 94.08444461 13.265625 96.78125 C-1.06363636 109 -1.06363636 109 -10 109 C-10.33 109.66 -10.66 110.32 -11 111 C-28.42878169 112.5786167 -47.67218829 112.7561532 -62 101 C-63.37013339 99.36345179 -64.7120272 97.70196405 -66 96 C-66.66 95.67 -67.32 95.34 -68 95 C-68.89328862 93.21628586 -69.71734189 91.39745149 -70.5 89.5625 C-72.22521028 85.43049495 -72.22521028 85.43049495 -75 82 C-75.30675232 79.10032243 -75.51173371 76.28216822 -75.625 73.375 C-75.66367187 72.57320313 -75.70234375 71.77140625 -75.7421875 70.9453125 C-75.83653931 68.96392444 -75.91936215 66.98199355 -76 65 C-72.58934861 63.96025501 -69.47735158 63.88491494 -65.921875 63.90234375 C-64.76171875 63.90556641 -63.6015625 63.90878906 -62.40625 63.91210938 C-60.59640625 63.92467773 -60.59640625 63.92467773 -58.75 63.9375 C-56.91695312 63.94426758 -56.91695312 63.94426758 -55.046875 63.95117188 C-52.03120054 63.96295185 -49.01562502 63.97940147 -46 64 C-45.49922626 65.4345728 -45.00424322 66.87116789 -44.51171875 68.30859375 C-44.23545654 69.10837646 -43.95919434 69.90815918 -43.67456055 70.73217773 C-42.92903875 73.23856642 -42.74808307 75.39685841 -43 78 C-42.34 78 -41.68 78 -41 78 C-41 78.66 -41 79.32 -41 80 C-39.68 80 -38.36 80 -37 80 C-37 80.66 -37 81.32 -37 82 C-24.83286494 82.59332937 -24.83286494 82.59332937 -14 78 C-12.46554906 74.93109813 -13.45015711 72.29905734 -14 69 C-22.7777647 65.56176037 -31.58302474 63.32472854 -40.77148438 61.2890625 C-55.09141957 58.00685924 -65.5734588 53.54931196 -74 41 C-75.27690077 36.90163663 -75.14679124 32.81542346 -75.125 28.5625 C-75.12886719 27.81162109 -75.13273438 27.06074219 -75.13671875 26.28710938 C-75.12986606 22.39135683 -74.95301756 18.8045066 -74 15 C-73.34 15 -72.68 15 -72 15 C-71.731875 14.41734375 -71.46375 13.8346875 -71.1875 13.234375 C-69.98519009 10.97213399 -68.66174087 9.19423682 -67 7.25 C-66.484375 6.63640625 -65.96875 6.0228125 -65.4375 5.390625 C-64 4 -64 4 -62 4 C-62 3.34 -62 2.68 -62 2 C-42.35828783 -8.9941442 -20.34660362 -9.17645479 0 0 Z " fill="#0D0D0D" transform="translate(652,243)"/>
<path d="M0 0 C0 4.85860957 -0.24027616 9.70843871 -0.4375 14.5625 C-0.47681641 15.62919922 -0.51613281 16.69589844 -0.55664062 17.79492188 C-0.59853516 18.81263672 -0.64042969 19.83035156 -0.68359375 20.87890625 C-0.72025146 21.8129126 -0.75690918 22.74691895 -0.79467773 23.70922852 C-1 26 -1 26 -2 28 C-2.89831543 28.02505615 -3.79663086 28.0501123 -4.72216797 28.07592773 C-8.05074869 28.17098693 -11.37914994 28.27022421 -14.70751953 28.37231445 C-16.1488762 28.41566231 -17.59028418 28.45733752 -19.03173828 28.49731445 C-21.10204541 28.55502088 -23.17209432 28.61871371 -25.2421875 28.68359375 C-26.4885498 28.72025146 -27.73491211 28.75690918 -29.01904297 28.79467773 C-31.92636942 28.80289479 -31.92636942 28.80289479 -34 30 C-33.83766876 30.99693878 -33.67533752 31.99387756 -33.50808716 33.02102661 C-32.95488519 36.91380765 -32.87298813 40.72895659 -32.87060547 44.66357422 C-32.86885315 45.3945079 -32.86710083 46.12544159 -32.86529541 46.87852478 C-32.8609289 49.27060386 -32.86379456 51.6626078 -32.8671875 54.0546875 C-32.8665134 55.72380589 -32.86554249 57.39292418 -32.86428833 59.06204224 C-32.86281879 62.54690493 -32.86494359 66.03174188 -32.86962891 69.51660156 C-32.87535241 73.99248719 -32.87202602 78.46831321 -32.86605644 82.9441967 C-32.86245337 86.38414973 -32.86358778 89.82408846 -32.86618423 93.2640419 C-32.86685284 94.91553886 -32.8660274 96.5670371 -32.86370468 98.21853256 C-32.86117946 100.51665475 -32.86501563 102.81467819 -32.87060547 105.11279297 C-32.87140106 106.42182587 -32.87219666 107.73085876 -32.87301636 109.07955933 C-33 112 -33 112 -34 113 C-36.21687994 113.15873955 -38.43855298 113.25133837 -40.66015625 113.31640625 C-41.32462265 113.33718735 -41.98908905 113.35796844 -42.6736908 113.37937927 C-44.80318543 113.44493658 -46.93280668 113.50378785 -49.0625 113.5625 C-50.50326847 113.60567939 -51.94402399 113.64929349 -53.38476562 113.69335938 C-56.9230404 113.80062393 -60.46145869 113.90187371 -64 114 C-65.57211913 110.85576174 -65.07907162 107.50928924 -65.02172852 104.06201172 C-65.01212097 103.24241974 -65.00251343 102.42282776 -64.99261475 101.57839966 C-64.95956277 98.86207657 -64.91925411 96.14591122 -64.87890625 93.4296875 C-64.85461119 91.5492509 -64.83076733 89.66880843 -64.80735779 87.7883606 C-64.74445577 82.83332636 -64.67540648 77.87839592 -64.60510254 72.92346191 C-64.53447429 67.8695957 -64.46962438 62.81565577 -64.40429688 57.76171875 C-64.27520567 47.84106265 -64.13909041 37.92052095 -64 28 C-74.56 28 -85.12 28 -96 28 C-96 18.43 -96 8.86 -96 -1 C-83.92623689 -1.1756916 -71.85243935 -1.34282249 -59.77835369 -1.49477577 C-54.17221337 -1.56567405 -48.56617635 -1.64036169 -42.96020508 -1.72363281 C-37.55274528 -1.8038171 -32.1452398 -1.87414757 -26.73755836 -1.93757248 C-24.67179433 -1.96354744 -22.60607222 -1.99310636 -20.540411 -2.02626419 C-17.6528639 -2.07200981 -14.76543203 -2.10514718 -11.87768555 -2.13525391 C-11.01885269 -2.1517952 -10.16001984 -2.16833649 -9.27516174 -2.18537903 C-3.34215648 -2.22810432 -3.34215648 -2.22810432 0 0 Z " fill="#000000" transform="translate(673,374)"/>
<path d="M0 0 C1.40653084 0.00067978 1.40653084 0.00067978 2.84147644 0.00137329 C4.31454254 -0.00366463 4.31454254 -0.00366463 5.81736755 -0.00880432 C9.08135728 -0.01834578 12.34529588 -0.02025902 15.60929871 -0.02133179 C17.86752341 -0.02454209 20.12574791 -0.02790599 22.38397217 -0.03141785 C27.12453189 -0.03741709 31.86507335 -0.03925693 36.6056366 -0.03866577 C42.6936258 -0.03856409 48.78149853 -0.05221884 54.86946011 -0.06943798 C59.53531435 -0.08053172 64.20114021 -0.08258579 68.8670063 -0.08205605 C71.11218225 -0.08324004 73.35735885 -0.08768509 75.6025219 -0.09538841 C78.73694498 -0.10513567 81.87111214 -0.10233119 85.00553894 -0.09628296 C85.94120193 -0.10190247 86.87686493 -0.10752197 87.84088135 -0.11331177 C88.69201508 -0.10911728 89.5431488 -0.10492279 90.42007446 -0.1006012 C91.53257395 -0.10141835 91.53257395 -0.10141835 92.66754818 -0.10225201 C94.48820496 0.14663696 94.48820496 0.14663696 96.48820496 2.14663696 C96.48820496 7.69091751 96.24087612 13.23112791 96.05070496 18.77163696 C96.01138855 20.03749634 95.97207214 21.30335571 95.93156433 22.60757446 C95.8896698 23.80898071 95.84777527 25.01038696 95.80461121 26.24819946 C95.76795349 27.35502075 95.73129578 28.46184204 95.69352722 29.60220337 C95.48820496 32.14663696 95.48820496 32.14663696 94.48820496 33.14663696 C91.46065657 33.26668353 88.45491669 33.32213353 85.42619324 33.33609009 C83.99942764 33.34853004 83.99942764 33.34853004 82.5438385 33.36122131 C80.47089965 33.37866506 78.3979406 33.3938199 76.32497025 33.40699768 C73.04753109 33.42795722 69.77019312 33.45498626 66.49281311 33.4836731 C59.5329823 33.54348761 52.57310474 33.59557203 45.61320496 33.64663696 C37.55800176 33.70580323 29.50284812 33.76809084 21.44773483 33.83851624 C18.21320417 33.86514258 14.97866873 33.88592833 11.74409485 33.90652466 C9.7657294 33.92312615 7.78736619 33.93999785 5.80900574 33.95718384 C4.90499023 33.96136826 4.00097473 33.96555267 3.06956482 33.96986389 C1.82866592 33.98237938 1.82866592 33.98237938 0.56269836 33.99514771 C-0.51523389 34.0028783 -0.51523389 34.0028783 -1.61494255 34.01076508 C-3.73680724 34.08406385 -3.73680724 34.08406385 -6.51179504 35.14663696 C-8.21672386 33.44170815 -7.63983925 31.30129436 -7.65074158 29.02761841 C-7.64871735 28.31408203 -7.64669312 27.60054565 -7.64460754 26.86538696 C-7.64556427 26.1367041 -7.646521 25.40802124 -7.64750671 24.65725708 C-7.6481884 23.11383986 -7.64633492 21.57041979 -7.64216614 20.02700806 C-7.63681767 17.65666297 -7.64211147 15.28650737 -7.64851379 12.91616821 C-7.64785301 11.42007404 -7.64657184 9.92397999 -7.64460754 8.42788696 C-7.64663177 7.71435059 -7.64865601 7.00081421 -7.65074158 6.26565552 C-7.61844376 -0.47003941 -6.5882679 0.03312318 0 0 Z " fill="#000000" transform="translate(434.5117950439453,453.8533630371094)"/>
<path d="M0 0 C0 4.85860957 -0.24027616 9.70843871 -0.4375 14.5625 C-0.47681641 15.62919922 -0.51613281 16.69589844 -0.55664062 17.79492188 C-0.59853516 18.81263672 -0.64042969 19.83035156 -0.68359375 20.87890625 C-0.72025146 21.8129126 -0.75690918 22.74691895 -0.79467773 23.70922852 C-1 26 -1 26 -2 28 C-2.89831543 28.02505615 -3.79663086 28.0501123 -4.72216797 28.07592773 C-8.05074869 28.17098693 -11.37914994 28.27022421 -14.70751953 28.37231445 C-16.1488762 28.41566231 -17.59028418 28.45733752 -19.03173828 28.49731445 C-21.10204541 28.55502088 -23.17209432 28.61871371 -25.2421875 28.68359375 C-26.4885498 28.72025146 -27.73491211 28.75690918 -29.01904297 28.79467773 C-31.92636942 28.80289479 -31.92636942 28.80289479 -34 30 C-33.83766876 30.99693878 -33.67533752 31.99387756 -33.50808716 33.02102661 C-32.95488519 36.91380765 -32.87298813 40.72895659 -32.87060547 44.66357422 C-32.86885315 45.3945079 -32.86710083 46.12544159 -32.86529541 46.87852478 C-32.8609289 49.27060386 -32.86379456 51.6626078 -32.8671875 54.0546875 C-32.8665134 55.72380589 -32.86554249 57.39292418 -32.86428833 59.06204224 C-32.86281879 62.54690493 -32.86494359 66.03174188 -32.86962891 69.51660156 C-32.87535241 73.99248719 -32.87202602 78.46831321 -32.86605644 82.9441967 C-32.86245337 86.38414973 -32.86358778 89.82408846 -32.86618423 93.2640419 C-32.86685284 94.91553886 -32.8660274 96.5670371 -32.86370468 98.21853256 C-32.86117946 100.51665475 -32.86501563 102.81467819 -32.87060547 105.11279297 C-32.87140106 106.42182587 -32.87219666 107.73085876 -32.87301636 109.07955933 C-33 112 -33 112 -34 113 C-36.21687994 113.15873955 -38.43855298 113.25133837 -40.66015625 113.31640625 C-41.32462265 113.33718735 -41.98908905 113.35796844 -42.6736908 113.37937927 C-44.80318543 113.44493658 -46.93280668 113.50378785 -49.0625 113.5625 C-50.50326847 113.60567939 -51.94402399 113.64929349 -53.38476562 113.69335938 C-56.9230404 113.80062393 -60.46145869 113.90187371 -64 114 C-65.57211913 110.85576174 -65.07907162 107.50928924 -65.02172852 104.06201172 C-65.01212097 103.24241974 -65.00251343 102.42282776 -64.99261475 101.57839966 C-64.95956277 98.86207657 -64.91925411 96.14591122 -64.87890625 93.4296875 C-64.85461119 91.5492509 -64.83076733 89.66880843 -64.80735779 87.7883606 C-64.74445577 82.83332636 -64.67540648 77.87839592 -64.60510254 72.92346191 C-64.53447429 67.8695957 -64.46962438 62.81565577 -64.40429688 57.76171875 C-64.27520567 47.84106265 -64.13909041 37.92052095 -64 28 C-74.56 28 -85.12 28 -96 28 C-96 18.43 -96 8.86 -96 -1 C-83.92623689 -1.1756916 -71.85243935 -1.34282249 -59.77835369 -1.49477577 C-54.17221337 -1.56567405 -48.56617635 -1.64036169 -42.96020508 -1.72363281 C-37.55274528 -1.8038171 -32.1452398 -1.87414757 -26.73755836 -1.93757248 C-24.67179433 -1.96354744 -22.60607222 -1.99310636 -20.540411 -2.02626419 C-17.6528639 -2.07200981 -14.76543203 -2.10514718 -11.87768555 -2.13525391 C-11.01885269 -2.1517952 -10.16001984 -2.16833649 -9.27516174 -2.18537903 C-3.34215648 -2.22810432 -3.34215648 -2.22810432 0 0 Z M-95 0 C-95 8.91 -95 17.82 -95 27 C-84.44 27 -73.88 27 -63 27 C-63 55.05 -63 83.1 -63 112 C-53.76 112 -44.52 112 -35 112 C-35 83.95 -35 55.9 -35 27 C-24.44 27 -13.88 27 -3 27 C-3 18.09 -3 9.18 -3 0 C-33.36 0 -63.72 0 -95 0 Z " fill="#A0A0A0" transform="translate(673,374)"/>
<path d="M0 0 C1.1947142 -0.00637985 2.38942841 -0.0127597 3.62034607 -0.01933289 C4.92133743 -0.02044571 6.2223288 -0.02155853 7.56274414 -0.02270508 C8.90173886 -0.02591608 10.24073321 -0.02928003 11.57972717 -0.03279114 C14.39007379 -0.03878841 17.20038962 -0.04063043 20.01074219 -0.04003906 C23.61686399 -0.03993742 27.22278897 -0.05358878 30.8288641 -0.07081127 C33.59547334 -0.08191492 36.36203477 -0.08395878 39.12866402 -0.08342934 C41.10629354 -0.08518822 43.08390813 -0.09603985 45.06150818 -0.10697937 C46.25937454 -0.10390274 47.45724091 -0.10082611 48.69140625 -0.09765625 C50.27906044 -0.09979378 50.27906044 -0.09979378 51.89878845 -0.10197449 C54.41040039 0.14526367 54.41040039 0.14526367 56.41040039 2.14526367 C36.28040039 2.47526367 16.15040039 2.80526367 -4.58959961 3.14526367 C-4.91959961 83.99526367 -5.24959961 164.84526367 -5.58959961 248.14526367 C4.97040039 248.14526367 15.53040039 248.14526367 26.41040039 248.14526367 C26.41040039 248.47526367 26.41040039 248.80526367 26.41040039 249.14526367 C10.07540039 249.64026367 10.07540039 249.64026367 -6.58959961 250.14526367 C-6.61218427 218.44115804 -6.63009747 186.73705546 -6.64066494 155.0329437 C-6.64191572 151.29393511 -6.64321003 147.55492653 -6.64453125 143.81591797 C-6.64479356 143.0715172 -6.64505587 142.32711643 -6.64532613 141.56015807 C-6.64968296 129.49105948 -6.65757057 117.42196564 -6.66675241 105.35286988 C-6.67608859 92.97809955 -6.68165514 80.60333171 -6.6836881 68.228558 C-6.6850634 60.58650462 -6.68941437 52.94446463 -6.69751608 45.30241536 C-6.7034038 39.45238587 -6.70405866 33.60236333 -6.70270729 27.75233078 C-6.70298382 25.34520192 -6.70499151 22.93807258 -6.70880508 20.53094673 C-6.71373552 17.26011903 -6.71260031 13.98935 -6.70985413 10.71852112 C-6.71276697 9.75258783 -6.71567981 8.78665455 -6.71868092 7.79145056 C-6.71668987 6.92209401 -6.71469882 6.05273747 -6.71264744 5.15703678 C-6.71302716 4.4010136 -6.71340688 3.64499043 -6.71379811 2.86605746 C-6.43231303 -1.03397179 -3.19698645 0.01152213 0 0 Z " fill="#8A8989" transform="translate(692.589599609375,237.854736328125)"/>
<path d="M0 0 C1.81455688 0.07069702 1.81455688 0.07069702 3.66577148 0.14282227 C5.62353516 0.21533203 5.62353516 0.21533203 7.62084961 0.28930664 C9.00952598 0.34583683 10.39819781 0.40247892 11.78686523 0.45922852 C13.17942544 0.51243399 14.5720035 0.56517448 15.96459961 0.61743164 C19.38472504 0.74760943 22.80459448 0.88259032 26.22436523 1.02172852 C26.22436523 1.35172852 26.22436523 1.68172852 26.22436523 2.02172852 C16.65436523 2.02172852 7.08436523 2.02172852 -2.77563477 2.02172852 C-2.77563477 83.53172852 -2.77563477 165.04172852 -2.77563477 249.02172852 C7.78436523 249.02172852 18.34436523 249.02172852 29.22436523 249.02172852 C29.55436523 248.36172852 29.88436523 247.70172852 30.22436523 247.02172852 C30.22436523 248.01172852 30.22436523 249.00172852 30.22436523 250.02172852 C19.00436523 250.35172852 7.78436523 250.68172852 -3.77563477 251.02172852 C-4.92484276 248.72331252 -4.89562603 247.46000584 -4.88585854 244.90531826 C-4.88498289 244.03807076 -4.88410724 243.17082326 -4.88320506 242.27729553 C-4.87708339 241.31884816 -4.87096172 240.36040078 -4.86465454 239.37290955 C-4.86213098 238.35918528 -4.85960742 237.34546101 -4.85700738 236.30101782 C-4.84723522 232.88228496 -4.83020782 229.46362602 -4.81323242 226.04492188 C-4.80473089 223.60293213 -4.79665884 221.16094086 -4.78898621 218.71894836 C-4.76904996 212.76181975 -4.74436388 206.80472801 -4.71738316 200.84762853 C-4.69556391 196.00835009 -4.6757082 191.16906732 -4.65726852 186.32977486 C-4.6546464 185.64204497 -4.65202427 184.95431509 -4.64932268 184.2457449 C-4.64400528 182.84881772 -4.63869249 181.45189052 -4.63338427 180.0549633 C-4.58333635 166.94511327 -4.52710949 153.83529527 -4.46877854 140.72547985 C-4.4188194 129.46511435 -4.37411368 118.20473799 -4.33325195 106.94433594 C-4.28584539 93.8810897 -4.23522589 80.81786252 -4.17942655 67.75464922 C-4.17349111 66.36305497 -4.16755975 64.9714607 -4.16163254 63.57986641 C-4.15871415 62.89509775 -4.15579577 62.21032909 -4.15278894 61.50480987 C-4.13239867 56.66818483 -4.11432255 51.83155426 -4.09712601 46.99491692 C-4.07393436 40.49185566 -4.04548758 33.98883204 -4.01343727 27.48580742 C-4.00244078 25.09158553 -3.99316156 22.69735509 -3.9856739 20.30311966 C-3.97522693 17.0498934 -3.95872115 13.79675492 -3.94058228 10.54356384 C-3.93892205 9.58288575 -3.93726182 8.62220765 -3.93555129 7.6324181 C-3.88199714 0.03038946 -3.88199714 0.03038946 0 0 Z " fill="#737373" transform="translate(908.775634765625,236.978271484375)"/>
<path d="M0 0 C1.40653084 0.00067978 1.40653084 0.00067978 2.84147644 0.00137329 C4.31454254 -0.00366463 4.31454254 -0.00366463 5.81736755 -0.00880432 C9.08135728 -0.01834578 12.34529588 -0.02025902 15.60929871 -0.02133179 C17.86752341 -0.02454209 20.12574791 -0.02790599 22.38397217 -0.03141785 C27.12453189 -0.03741709 31.86507335 -0.03925693 36.6056366 -0.03866577 C42.6936258 -0.03856409 48.78149853 -0.05221884 54.86946011 -0.06943798 C59.53531435 -0.08053172 64.20114021 -0.08258579 68.8670063 -0.08205605 C71.11218225 -0.08324004 73.35735885 -0.08768509 75.6025219 -0.09538841 C78.73694498 -0.10513567 81.87111214 -0.10233119 85.00553894 -0.09628296 C85.94120193 -0.10190247 86.87686493 -0.10752197 87.84088135 -0.11331177 C88.69201508 -0.10911728 89.5431488 -0.10492279 90.42007446 -0.1006012 C91.53257395 -0.10141835 91.53257395 -0.10141835 92.66754818 -0.10225201 C94.48820496 0.14663696 94.48820496 0.14663696 96.48820496 2.14663696 C96.48820496 7.69091751 96.24087612 13.23112791 96.05070496 18.77163696 C96.01138855 20.03749634 95.97207214 21.30335571 95.93156433 22.60757446 C95.8896698 23.80898071 95.84777527 25.01038696 95.80461121 26.24819946 C95.76795349 27.35502075 95.73129578 28.46184204 95.69352722 29.60220337 C95.48820496 32.14663696 95.48820496 32.14663696 94.48820496 33.14663696 C91.46065657 33.26668353 88.45491669 33.32213353 85.42619324 33.33609009 C83.99942764 33.34853004 83.99942764 33.34853004 82.5438385 33.36122131 C80.47089965 33.37866506 78.3979406 33.3938199 76.32497025 33.40699768 C73.04753109 33.42795722 69.77019312 33.45498626 66.49281311 33.4836731 C59.5329823 33.54348761 52.57310474 33.59557203 45.61320496 33.64663696 C37.55800176 33.70580323 29.50284812 33.76809084 21.44773483 33.83851624 C18.21320417 33.86514258 14.97866873 33.88592833 11.74409485 33.90652466 C9.7657294 33.92312615 7.78736619 33.93999785 5.80900574 33.95718384 C4.90499023 33.96136826 4.00097473 33.96555267 3.06956482 33.96986389 C1.82866592 33.98237938 1.82866592 33.98237938 0.56269836 33.99514771 C-0.51523389 34.0028783 -0.51523389 34.0028783 -1.61494255 34.01076508 C-3.73680724 34.08406385 -3.73680724 34.08406385 -6.51179504 35.14663696 C-8.21672386 33.44170815 -7.63983925 31.30129436 -7.65074158 29.02761841 C-7.64871735 28.31408203 -7.64669312 27.60054565 -7.64460754 26.86538696 C-7.64556427 26.1367041 -7.646521 25.40802124 -7.64750671 24.65725708 C-7.6481884 23.11383986 -7.64633492 21.57041979 -7.64216614 20.02700806 C-7.63681767 17.65666297 -7.64211147 15.28650737 -7.64851379 12.91616821 C-7.64785301 11.42007404 -7.64657184 9.92397999 -7.64460754 8.42788696 C-7.64663177 7.71435059 -7.64865601 7.00081421 -7.65074158 6.26565552 C-7.61844376 -0.47003941 -6.5882679 0.03312318 0 0 Z M-6.51179504 2.14663696 C-6.51179504 12.04663696 -6.51179504 21.94663696 -6.51179504 32.14663696 C26.48820496 32.14663696 59.48820496 32.14663696 93.48820496 32.14663696 C93.48820496 22.24663696 93.48820496 12.34663696 93.48820496 2.14663696 C60.48820496 2.14663696 27.48820496 2.14663696 -6.51179504 2.14663696 Z " fill="#959495" transform="translate(434.5117950439453,453.8533630371094)"/>
<path d="M0 0 C0.90737411 -0.00014603 1.81474823 -0.00029205 2.74961853 -0.0004425 C5.75807053 0.00025588 8.76646112 0.00804485 11.77490234 0.01586914 C13.85712653 0.01773358 15.93935115 0.01915736 18.02157593 0.02015686 C23.50920823 0.02397998 28.99681417 0.03380853 34.48443604 0.04486084 C40.08125451 0.05507937 45.67807723 0.05965543 51.27490234 0.06469727 C62.26189311 0.07543096 73.24886429 0.09250494 84.23583984 0.11352539 C85.12590564 3.42514435 85.35179173 6.31457018 85.33349609 9.75415039 C85.32866211 11.3590332 85.32866211 11.3590332 85.32373047 12.99633789 C85.31116211 14.6630957 85.31116211 14.6630957 85.29833984 16.36352539 C85.29382813 17.49016602 85.28931641 18.61680664 85.28466797 19.77758789 C85.27289382 22.55628756 85.25644824 25.33487948 85.23583984 28.11352539 C84.57583984 28.44352539 83.91583984 28.77352539 83.23583984 29.11352539 C83.23583984 20.20352539 83.23583984 11.29352539 83.23583984 2.11352539 C52.54583984 2.11352539 21.85583984 2.11352539 -9.76416016 2.11352539 C-9.76416016 3.76352539 -9.76416016 5.41352539 -9.76416016 7.11352539 C-10.09416016 7.11352539 -10.42416016 7.11352539 -10.76416016 7.11352539 C-10.76416016 5.13352539 -10.76416016 3.15352539 -10.76416016 1.11352539 C-7.42465163 -0.55622887 -3.6712553 -0.01530467 0 0 Z " fill="#B6B6B7" transform="translate(805.76416015625,237.886474609375)"/>
<path d="M0 0 C2.25414782 3.38122173 2.24544447 4.6064728 2.1875 8.5625 C2.18105469 9.53316406 2.17460938 10.50382812 2.16796875 11.50390625 C2 14 2 14 1 16 C19.81 16 38.62 16 58 16 C58 23.92 58 31.84 58 40 C58.99 40.495 58.99 40.495 60 41 C56.75011491 41.97854084 53.88271017 42.09161558 50.49707031 42.02172852 C49.39623108 42.00163223 48.29539185 41.98153595 47.16119385 41.96083069 C45.38757477 41.92027809 45.38757477 41.92027809 43.578125 41.87890625 C42.36300232 41.85529526 41.14787964 41.83168427 39.89593506 41.80735779 C36.01383649 41.7307682 32.13193974 41.64672307 28.25 41.5625 C25.61849947 41.50927464 22.98698908 41.45653427 20.35546875 41.40429688 C13.90352088 41.27515932 7.45172299 41.13989974 1 41 C1 40.67 1 40.34 1 40 C19.48 40 37.96 40 57 40 C57 32.41 57 24.82 57 17 C38.19 17 19.38 17 0 17 C0 11.39 0 5.78 0 0 Z " fill="#A7A6A7" transform="translate(825,267)"/>
<path d="M0 0 C0.33 0 0.66 0 1 0 C1 26.73 1 53.46 1 81 C10.24 81 19.48 81 29 81 C29 74.73 29 68.46 29 62 C31.03120707 65.04681061 31.24659875 65.60118324 31.1953125 69.01171875 C31.19031738 69.69451904 31.18532227 70.37731934 31.18017578 71.08081055 C31.16196777 71.94101807 31.14375977 72.80122559 31.125 73.6875 C31.08375 76.430625 31.0425 79.17375 31 82 C15.655 82.495 15.655 82.495 0 83 C-0.88166262 78.59168689 -1.1025409 74.71284336 -1.02172852 70.2722168 C-1.01212097 69.51070816 -1.00251343 68.74919952 -0.99261475 67.96461487 C-0.95975787 65.4593848 -0.91937535 62.95433644 -0.87890625 60.44921875 C-0.8545921 58.70759208 -0.8307492 56.96595877 -0.80735779 55.22431946 C-0.74464565 50.64908261 -0.67554278 46.07396385 -0.60510254 41.49884033 C-0.53430261 36.82675537 -0.4695555 32.15458694 -0.40429688 27.48242188 C-0.27545051 18.32152284 -0.13985166 9.16073717 0 0 Z " fill="#6C6B6B" transform="translate(796,405)"/>
<path d="M0 0 C2.74049361 2.74049361 2.39492757 4.61574127 2.625 8.4375 C2.69976563 9.59121094 2.77453125 10.74492187 2.8515625 11.93359375 C2.94936409 13.95396864 3 15.97725933 3 18 C-0.51191483 19.10961564 -3.63334228 19.03443358 -7.296875 18.87890625 C-8.50214844 18.83056641 -9.70742188 18.78222656 -10.94921875 18.73242188 C-12.83060547 18.64831055 -12.83060547 18.64831055 -14.75 18.5625 C-16.01972656 18.51029297 -17.28945313 18.45808594 -18.59765625 18.40429688 C-21.73202407 18.27468016 -24.86606874 18.13971529 -28 18 C-28 15.69 -28 13.38 -28 11 C-27.67 11 -27.34 11 -27 11 C-27 12.98 -27 14.96 -27 17 C-17.76 17 -8.52 17 1 17 C0.67 11.39 0.34 5.78 0 0 Z " fill="#9E9D9E" transform="translate(669,266)"/>
<path d="M0 0 C0.34909424 0.49346924 0.69818848 0.98693848 1.05786133 1.49536133 C0.39786133 3.47536133 -0.26213867 5.45536133 -0.94213867 7.49536133 C-1.27213867 7.49536133 -1.60213867 7.49536133 -1.94213867 7.49536133 C-2.27213867 5.84536133 -2.60213867 4.19536133 -2.94213867 2.49536133 C-6.18079502 1.41580921 -8.73369705 1.29094392 -12.14135742 1.17895508 C-13.34985352 1.13706055 -14.55834961 1.09516602 -15.8034668 1.05200195 C-17.06610352 1.01268555 -18.32874023 0.97336914 -19.62963867 0.93286133 C-20.90387695 0.88967773 -22.17811523 0.84649414 -23.4909668 0.80200195 C-26.64124719 0.69581273 -29.79160706 0.593766 -32.94213867 0.49536133 C-32.94213867 0.16536133 -32.94213867 -0.16463867 -32.94213867 -0.50463867 C-28.58287217 -0.72182227 -24.2233048 -0.91865014 -19.86230469 -1.09667969 C-18.37898221 -1.16010004 -16.89588628 -1.22907279 -15.41308594 -1.30371094 C-13.28119595 -1.41005563 -11.14928782 -1.4963861 -9.01635742 -1.57885742 C-7.7333374 -1.6364624 -6.45031738 -1.69406738 -5.12841797 -1.75341797 C-1.94213867 -1.50463867 -1.94213867 -1.50463867 0 0 Z " fill="#B7B7B8" transform="translate(528.942138671875,238.504638671875)"/>
<path d="M0 0 C0 1.65 0 3.3 0 5 C-0.66 4.67 -1.32 4.34 -2 4 C-2 3.01 -2 2.02 -2 1 C-14.54 1 -27.08 1 -40 1 C-40 0.67 -40 0.34 -40 0 C-35.10723085 -0.16811151 -30.2142924 -0.32861689 -25.32104492 -0.48217773 C-23.65756573 -0.53544145 -21.99415092 -0.5907578 -20.33081055 -0.64819336 C-17.93552527 -0.73054248 -15.54010311 -0.80542899 -13.14453125 -0.87890625 C-12.03486748 -0.91945885 -12.03486748 -0.91945885 -10.90278625 -0.96083069 C-7.11382329 -1.06955378 -3.68060123 -0.93831637 0 0 Z " fill="#797979" transform="translate(417,455)"/>
<path d="M0 0 C0.33 0.99 0.66 1.98 1 3 C11.23 3 21.46 3 32 3 C32 3.33 32 3.66 32 4 C16.16 4.495 16.16 4.495 0 5 C-0.33 4.01 -0.66 3.02 -1 2 C-0.67 1.34 -0.34 0.68 0 0 Z " fill="#BCBCBC" transform="translate(428,434)"/>
<path d="M0 0 C2.09350689 3.4019487 2.17942163 6.05272412 2 10 C1.34 10 0.68 10 0 10 C-0.04898438 10.85464844 -0.09796875 11.70929688 -0.1484375 12.58984375 C-0.22320313 13.69457031 -0.29796875 14.79929687 -0.375 15.9375 C-0.47941406 17.59072266 -0.47941406 17.59072266 -0.5859375 19.27734375 C-0.72257813 20.17582031 -0.85921875 21.07429688 -1 22 C-1.66 22.33 -2.32 22.66 -3 23 C-2.6893306 20.29144546 -2.37652255 17.58316612 -2.0625 14.875 C-1.97548828 14.11445313 -1.88847656 13.35390625 -1.79882812 12.5703125 C-1.3084513 8.35670423 -0.74097022 4.178805 0 0 Z " fill="#D9D9DA" transform="translate(1017,343)"/>
<path d="M0 0 C-1.49097658 3.7952131 -3.75700849 5.61042731 -7 8 C-4.18918919 0 -4.18918919 0 0 0 Z " fill="#5E5E5E" transform="translate(1014,242)"/>
<path d="M0 0 C0 4.38968456 -2.12805101 5.76905739 -5 9 C-5 4.61031544 -2.87194899 3.23094261 0 0 Z " fill="#606060" transform="translate(808,384)"/>
<path d="M0 0 C2 3 2 3 2 5 C1.34 5 0.68 5 0 5 C0 3.35 0 1.7 0 0 Z " fill="#FFFFFF" transform="translate(478,368)"/>
<path d="M0 0 C1 4 1 4 1 4 Z " fill="#FFFFFF" transform="translate(418,455)"/>
<path d="M0 0 C1 4 1 4 1 4 Z " fill="#FFFFFF" transform="translate(938,365)"/>
<path d="M0 0 C1 4 1 4 1 4 Z " fill="#FFFFFF" transform="translate(296,363)"/>
<path d="M0 0 C1 4 1 4 1 4 Z " fill="#FFFFFF" transform="translate(260,361)"/>
<path d="M0 0 C4 1 4 1 4 1 Z " fill="#FFFFFF" transform="translate(616,355)"/>
<path d="M0 0 C1 4 1 4 1 4 Z " fill="#FFFFFF" transform="translate(478,302)"/>
<path d="M0 0 C1 4 1 4 1 4 Z " fill="#F4F4F4" transform="translate(639,277)"/>
<path d="" fill="#FFFFFF" transform="translate(0,0)"/>
<path d="M0 0 C3 1 3 1 3 1 Z " fill="#FFFFFF" transform="translate(621,355)"/>
<path d="" fill="#FFFFFF" transform="translate(0,0)"/>
<path d="" fill="#FFFFFF" transform="translate(0,0)"/>
<path d="M0 0 C2 1 2 1 2 1 Z " fill="#FFFFFF" transform="translate(322,488)"/>
<path d="" fill="#FFFFFF" transform="translate(0,0)"/>
<path d="" fill="#FFFFFF" transform="translate(0,0)"/>
<path d="M0 0 C2 1 2 1 2 1 Z " fill="#FFFFFF" transform="translate(527,452)"/>
<path d="M0 0 C2 1 2 1 2 1 Z " fill="#FFFFFF" transform="translate(527,449)"/>
<path d="M0 0 C2 1 2 1 2 1 Z " fill="#FFFFFF" transform="translate(429,439)"/>
<path d="" fill="#FFFFFF" transform="translate(0,0)"/>
<path d="" fill="#FFFFFF" transform="translate(0,0)"/>
<path d="" fill="#FFFFFF" transform="translate(0,0)"/>
<path d="" fill="#FFFFFF" transform="translate(0,0)"/>
<path d="" fill="#FFFFFF" transform="translate(0,0)"/>
<path d="" fill="#FFFFFF" transform="translate(0,0)"/>
<path d="" fill="#FFFFFF" transform="translate(0,0)"/>
<path d="" fill="#FFFFFF" transform="translate(0,0)"/>
<path d="" fill="#FFFFFF" transform="translate(0,0)"/>
<path d="" fill="#FFFFFF" transform="translate(0,0)"/>
<path d="" fill="#FFFFFF" transform="translate(0,0)"/>
<path d="" fill="#FFFFFF" transform="translate(0,0)"/>
<path d="" fill="#FFFFFF" transform="translate(0,0)"/>
<path d="M0 0 C2 1 2 1 2 1 Z " fill="#FFFFFF" transform="translate(619,307)"/>
<path d="" fill="#FFFFFF" transform="translate(0,0)"/>
<path d="" fill="#FFFFFF" transform="translate(0,0)"/>
<path d="" fill="#FFFFFF" transform="translate(0,0)"/>
<path d="" fill="#FFFFFF" transform="translate(0,0)"/>
<path d="" fill="#FFFFFF" transform="translate(0,0)"/>
<path d="" fill="#FFFFFF" transform="translate(0,0)"/>
<path d="" fill="#FFFFFF" transform="translate(0,0)"/>
<path d="" fill="#FFFFFF" transform="translate(0,0)"/>
<path d="" fill="#FFFFFF" transform="translate(0,0)"/>
<path d="" fill="#FFFFFF" transform="translate(0,0)"/>
<path d="" fill="#FFFFFF" transform="translate(0,0)"/>
<path d="" fill="#FFFFFF" transform="translate(0,0)"/>
<path d="" fill="#FFFFFF" transform="translate(0,0)"/>
<path d="" fill="#FFFFFF" transform="translate(0,0)"/>
<path d="" fill="#FFFFFF" transform="translate(0,0)"/>
<path d="" fill="#FFFFFF" transform="translate(0,0)"/>
<path d="" fill="#FFFFFF" transform="translate(0,0)"/>
<path d="" fill="#FFFFFF" transform="translate(0,0)"/>
<path d="" fill="#FFFFFF" transform="translate(0,0)"/>
<path d="" fill="#FFFFFF" transform="translate(0,0)"/>
<path d="" fill="#FFFFFF" transform="translate(0,0)"/>
<path d="" fill="#FFFFFF" transform="translate(0,0)"/>
<path d="" fill="#FFFFFF" transform="translate(0,0)"/>
<path d="" fill="#FFFFFF" transform="translate(0,0)"/>
<path d="" fill="#FFFFFF" transform="translate(0,0)"/>
<path d="" fill="#FFFFFF" transform="translate(0,0)"/>
<path d="" fill="#FFFFFF" transform="translate(0,0)"/>
<path d="" fill="#FFFFFF" transform="translate(0,0)"/>
<path d="" fill="#FFFFFF" transform="translate(0,0)"/>
<path d="" fill="#FFFFFF" transform="translate(0,0)"/>
<path d="" fill="#FFFFFF" transform="translate(0,0)"/>
<path d="" fill="#FFFFFF" transform="translate(0,0)"/>
<path d="" fill="#FFFFFF" transform="translate(0,0)"/>
<path d="" fill="#FFFFFF" transform="translate(0,0)"/>
<path d="" fill="#FFFFFF" transform="translate(0,0)"/>
<path d="" fill="#FFFFFF" transform="translate(0,0)"/>
<path d="" fill="#FFFFFF" transform="translate(0,0)"/>
<path d="" fill="#FFFFFF" transform="translate(0,0)"/>
<path d="" fill="#FFFFFF" transform="translate(0,0)"/>
<path d="" fill="#FFFFFF" transform="translate(0,0)"/>
<path d="" fill="#FFFFFF" transform="translate(0,0)"/>
<path d="" fill="#FFFFFF" transform="translate(0,0)"/>
<path d="" fill="#FFFFFF" transform="translate(0,0)"/>
<path d="" fill="#FFFFFF" transform="translate(0,0)"/>
<path d="" fill="#FFFFFF" transform="translate(0,0)"/>
<path d="" fill="#FFFFFF" transform="translate(0,0)"/>
<path d="" fill="#FFFFFF" transform="translate(0,0)"/>
<path d="" fill="#FFFFFF" transform="translate(0,0)"/>
<path d="" fill="#FFFFFF" transform="translate(0,0)"/>
<path d="" fill="#FFFFFF" transform="translate(0,0)"/>
<path d="" fill="#FFFFFF" transform="translate(0,0)"/>
<path d="" fill="#FFFFFF" transform="translate(0,0)"/>
<path d="" fill="#FFFFFF" transform="translate(0,0)"/>
<path d="" fill="#FFFFFF" transform="translate(0,0)"/>
<path d="" fill="#FFFFFF" transform="translate(0,0)"/>
<path d="" fill="#FFFFFF" transform="translate(0,0)"/>
<path d="" fill="#FFFFFF" transform="translate(0,0)"/>
<path d="" fill="#FFFFFF" transform="translate(0,0)"/>
<path d="" fill="#FFFFFF" transform="translate(0,0)"/>
<path d="" fill="#FFFFFF" transform="translate(0,0)"/>
</svg>
